<?xml version="1.0" encoding="UTF-8" standalone="no"?>
<!-- Created with Inkscape (http://www.inkscape.org/) -->

<svg
   xmlns:dc="http://purl.org/dc/elements/1.1/"
   xmlns:cc="http://creativecommons.org/ns#"
   xmlns:rdf="http://www.w3.org/1999/02/22-rdf-syntax-ns#"
   xmlns:svg="http://www.w3.org/2000/svg"
   xmlns="http://www.w3.org/2000/svg"
   xmlns:sodipodi="http://sodipodi.sourceforge.net/DTD/sodipodi-0.dtd"
   xmlns:inkscape="http://www.inkscape.org/namespaces/inkscape"
   width="100"
   height="100"
   id="svg2"
   version="1.1"
   inkscape:version="0.48.4 r9939"
   sodipodi:docname="floppy.svg">
  <defs
     id="defs4" />
  <sodipodi:namedview
     id="base"
     pagecolor="#ffffff"
     bordercolor="#666666"
     borderopacity="1.0"
     inkscape:pageopacity="0.0"
     inkscape:pageshadow="2"
     inkscape:zoom="3.6203867"
     inkscape:cx="46.094817"
     inkscape:cy="63.501924"
     inkscape:document-units="px"
     inkscape:current-layer="layer1"
     showgrid="false"
     inkscape:window-width="1366"
     inkscape:window-height="706"
     inkscape:window-x="-8"
     inkscape:window-y="-8"
     inkscape:window-maximized="1" />
  <metadata
     id="metadata7">
    <rdf:RDF>
      <cc:Work
         rdf:about="">
        <dc:format>image/svg+xml</dc:format>
        <dc:type
           rdf:resource="http://purl.org/dc/dcmitype/StillImage" />
        <dc:title />
      </cc:Work>
    </rdf:RDF>
  </metadata>
  <g
     inkscape:label="Layer 1"
     inkscape:groupmode="layer"
     id="layer1"
     transform="translate(0,-952.36218)">
    <path
       style="fill:#89a02c;fill-opacity:1"
       d="m 10.262946,952.3622 79.474108,0 L 100,962.62515 l 0,79.47415 c 0,5.6856 -4.577274,10.2629 -10.262946,10.2629 l -79.474108,0 C 4.5772738,1052.3622 0,1047.7849 0,1042.0993 L 0,962.62515 C 0,956.93947 4.5772738,952.3622 10.262946,952.3622 z"
       id="rect2985"
       inkscape:connector-curvature="0"
       sodipodi:nodetypes="sccssssss" />
    <path
       style="fill:#ffffff;fill-opacity:1"
       d="m 29.951444,952.3622 40.097112,0 6.01338,0 0,33.98866 c 0,3.33141 -2.681968,6.01338 -6.01338,6.01338 l -40.097112,0 c -3.331412,0 -6.01338,-2.68197 -6.01338,-6.01338 l 0,-33.98866 z"
       id="rect3757"
       inkscape:connector-curvature="0"
       sodipodi:nodetypes="cccsssscc" />
    <rect
       style="fill:#89a02c;fill-opacity:1"
       id="rect3760"
       width="19.798992"
       height="30.910667"
       x="51.227917"
       y="956.9079"
       ry="1.8182744" />
    <path
       style="fill:#ffffff;fill-opacity:1"
       d="m 19.273961,1010.5419 61.452077,0 c 0.997686,0 1.800876,0.8032 1.800876,1.8009 l 0,40.0194 -1.800876,0 -61.452077,0 -1.800874,0 0,-40.0194 c 0,-0.9977 0.80319,-1.8009 1.800874,-1.8009 z"
       id="rect3764"
       inkscape:connector-curvature="0"
       sodipodi:nodetypes="sssccccss" />
    <rect
       style="fill:#89a02c;fill-opacity:1"
       id="rect3771"
       width="52.123871"
       height="1.212183"
       x="23.938"
       y="1016.35"
       ry="0.6060915" />
    <rect
       style="fill:#89a02c;fill-opacity:1"
       id="rect3771-4"
       width="52.123871"
       height="1.212183"
       x="23.938"
       y="1022.35"
       ry="0.6060915" />
    <rect
       style="fill:#89a02c;fill-opacity:1"
       id="rect3771-4-0"
       width="52.123871"
       height="1.212183"
       x="23.938"
       y="1028.35"
       ry="0.6060915" />
    <rect
       style="fill:#89a02c;fill-opacity:1"
       id="rect3771-4-0-9"
       width="52.123871"
       height="1.212183"
       x="23.938"
       y="1034.35"
       ry="0.6060915" />
    <rect
       style="fill:#89a02c;fill-opacity:1"
       id="rect3771-4-0-9-4"
       width="52.123871"
       height="1.212183"
       x="23.938"
       y="1040.35"
       ry="0.6060915" />
    <rect
       style="fill:#89a02c;fill-opacity:1"
       id="rect3771-4-0-9-4-8"
       width="52.123871"
       height="1.212183"
       x="23.938"
       y="1046.35"
       ry="0.6060915" />
  </g>
</svg>
