<svg xmlns="http://www.w3.org/2000/svg" xmlns:xlink="http://www.w3.org/1999/xlink" version="1.1" x="0px" y="0px" viewBox="0 0 100 100" enable-background="new 0 0 100 100" xml:space="preserve"><path d="M55.781,28.144c-0.879,0-1.74-0.428-2.259-1.218c-0.819-1.246-0.473-2.919,0.773-3.738c0.1-0.066,0.612-0.443,0.797-1.368  c0.261-1.307-0.29-3.053-1.551-4.918c-1.651-2.443-1.643-4.627-1.346-6.028c0.714-3.358,3.623-5.258,3.953-5.464  c1.267-0.789,2.931-0.404,3.72,0.861c0.785,1.259,0.407,2.914-0.842,3.708c-0.346,0.228-1.36,1.08-1.553,2.034  c-0.041,0.203-0.165,0.82,0.541,1.863c2.661,3.936,2.76,7.067,2.373,9.002c-0.405,2.024-1.545,3.782-3.128,4.821  C56.804,28,56.29,28.144,55.781,28.144z"></path><path d="M67.482,31.1c-0.879,0-1.74-0.428-2.259-1.217c-0.819-1.246-0.474-2.92,0.773-3.739c0.1-0.066,0.612-0.442,0.797-1.367  c0.261-1.306-0.29-3.053-1.552-4.918c-1.651-2.442-1.644-4.625-1.346-6.027c0.712-3.359,3.624-5.259,3.954-5.465  c1.267-0.79,2.931-0.403,3.719,0.861c0.786,1.259,0.408,2.914-0.842,3.708c-0.346,0.227-1.36,1.079-1.553,2.035  c-0.04,0.203-0.165,0.819,0.541,1.863c2.661,3.936,2.76,7.067,2.373,9.001c-0.405,2.023-1.544,3.781-3.127,4.821  C68.505,30.957,67.991,31.1,67.482,31.1z"></path><path d="M43.182,31.1c-0.879,0-1.74-0.428-2.259-1.217c-0.819-1.246-0.473-2.92,0.773-3.739c0.101-0.066,0.612-0.442,0.797-1.367  c0.261-1.306-0.29-3.053-1.551-4.918c-1.652-2.442-1.645-4.625-1.347-6.027c0.713-3.359,3.625-5.259,3.954-5.465  c1.266-0.79,2.932-0.403,3.72,0.861c0.786,1.259,0.408,2.914-0.842,3.708c-0.346,0.227-1.361,1.079-1.553,2.035  c-0.041,0.203-0.165,0.819,0.541,1.863c2.663,3.936,2.76,7.067,2.373,9.001c-0.404,2.023-1.544,3.781-3.126,4.821  C44.206,30.957,43.69,31.1,43.182,31.1z"></path><path d="M68.658,95h-27.9c-0.148,0-0.297-0.013-0.444-0.037C28.976,93.073,24.558,88.037,24.558,77V46.4c0-1.492,1.209-2.7,2.7-2.7  h54.9c1.491,0,2.699,1.208,2.699,2.7V77c0,11.037-4.417,16.073-15.756,17.963C68.955,94.987,68.807,95,68.658,95z M40.984,89.6  h27.448c7.772-1.322,11.026-3.418,11.026-12.6V49.1h-49.5V77C29.958,86.182,33.212,88.277,40.984,89.6z"></path><path d="M22.558,81.391c-3.977,0-6.565-1.677-8.149-3.323c-4.707-4.896-4.722-13.894-3.229-18.717  c1.275-4.121,3.414-6.588,6.359-7.332c4.827-1.225,9.315,3.016,9.811,3.503c1.065,1.044,1.081,2.753,0.037,3.817  c-1.042,1.062-2.747,1.08-3.812,0.043c-0.892-0.86-3.216-2.514-4.719-2.127c-1.3,0.334-2.135,2.457-2.518,3.691  c-1.084,3.506-1.009,10.285,1.964,13.378c1.636,1.702,4.043,2.1,7.361,1.216c1.439-0.386,2.92,0.472,3.305,1.912  c0.384,1.441-0.473,2.921-1.914,3.305C25.389,81.201,23.895,81.391,22.558,81.391z"></path><path d="M64.158,64.4c-1.492,0-2.7-1.209-2.7-2.7V47.3c0-1.491,1.208-2.7,2.7-2.7c1.491,0,2.7,1.209,2.7,2.7v14.4  C66.858,63.191,65.649,64.4,64.158,64.4z"></path><path d="M71.357,71.6c-1.491,0-2.699-1.208-2.699-2.699V47.3c0-1.491,1.208-2.7,2.699-2.7c1.492,0,2.7,1.209,2.7,2.7V68.9  C74.058,70.392,72.85,71.6,71.357,71.6z"></path><path d="M79.454,49.1c-1.356,0-2.526-1.021-2.68-2.401C76.699,46.142,75.801,41,68.658,41h-3.601c-0.948,0-1.827-0.497-2.314-1.311  c-0.062-0.095-2.13-3.189-7.585-3.189c-4.642,0-6.666,3.157-6.685,3.189C47.985,40.503,47.106,41,46.158,41h-4.5  c-7.143,0-8.042,5.142-8.121,5.728c-0.197,1.466-1.539,2.518-3.006,2.336c-1.468-0.181-2.52-1.492-2.356-2.962  C28.578,42.47,31.916,35.6,41.658,35.6h3.185c1.526-1.716,4.845-4.5,10.315-4.5c6.098,0,9.606,2.784,11.19,4.5h2.31  c9.742,0,13.079,6.87,13.483,10.502c0.165,1.482-0.904,2.817-2.386,2.981C79.654,49.095,79.554,49.1,79.454,49.1z"></path></svg>