<?xml version="1.0" encoding="UTF-8"?>
<svg xmlns="http://www.w3.org/2000/svg" width="700pt" height="700pt" viewBox="0 0 700 700">
  <path d="M606.79 260.38c-9.3789 9.3789-20.508 15.938-32.355 19.637 11.844 3.6953 22.973 10.254 32.355 19.637 15.5 15.5 23.254 35.812 23.254 56.082 0 20.312-7.75 40.621-23.254 56.125-2.3047 2.3047-4.6914 4.4102-7.1953 6.3594.59766.47656 1.1914.95312 1.75 1.4297 1.9062 1.5508 3.6953 3.2188 5.4062 4.9297 15.5 15.5 23.254 35.812 23.254 56.082 0 20.312-7.75 40.621-23.254 56.125-15.5 15.5-35.812 23.254-56.082 23.254-20.312 0-40.621-7.75-56.125-23.254-1.668-1.668-3.3008-3.457-4.9297-5.4062-.47656-.59766-.95312-1.1914-1.4297-1.7891-1.9492 2.5039-4.0938 4.8906-6.3594 7.1953-15.5 15.5-35.812 23.254-56.125 23.254s-40.621-7.75-56.082-23.254c-9.3789-9.3789-15.938-20.508-19.637-32.355-3.6953 11.844-10.254 22.973-19.637 32.355l-2.543-2.543 2.543 2.543c-15.5 15.5-35.812 23.254-56.082 23.254-20.312 0-40.621-7.75-56.082-23.254-2.3047-2.3047-4.4102-4.6914-6.3594-7.1953-.47656.59766-.95312 1.1914-1.4297 1.7891-1.6289 1.9492-3.2578 3.7773-4.9297 5.4062-15.5 15.5-35.812 23.254-56.125 23.254s-40.621-7.75-56.082-23.254c-15.5-15.5-23.254-35.812-23.254-56.125s7.75-40.621 23.254-56.082c1.7109-1.7109 3.5391-3.3398 5.4062-4.9297.59766-.47656 1.1914-.95312 1.7891-1.4297-2.5039-1.9492-4.8906-4.0938-7.1953-6.3594-15.5-15.5-23.254-35.812-23.254-56.125s7.75-40.621 23.254-56.082l5.1289 5.1289-5.1289-5.1289c9.3789-9.3789 20.508-15.938 32.355-19.637-11.844-3.6953-22.973-10.254-32.355-19.637-15.5-15.5-23.254-35.812-23.254-56.125s7.75-40.621 23.254-56.125c2.3047-2.3047 4.6914-4.4102 7.1953-6.3594-.59766-.47656-1.1914-.95313-1.75-1.4297-1.9062-1.5508-3.6953-3.2188-5.4062-4.9297-15.5-15.5-23.254-35.812-23.254-56.125s7.75-40.621 23.254-56.082l5.1289 5.1289-5.1289-5.1289c15.5-15.5 35.812-23.254 56.082-23.254 20.312 0 40.621 7.75 56.125 23.254 1.668 1.668 3.3008 3.4961 4.9297 5.4453.47656.59766.95312 1.1523 1.4297 1.75 1.9492-2.5039 4.0938-4.8906 6.3594-7.1953 15.5-15.5 35.812-23.254 56.082-23.254 20.312 0 40.582 7.75 56.082 23.254l-2.543 2.543 2.543-2.543c9.3789 9.3789 15.938 20.508 19.637 32.355 3.6953-11.844 10.254-22.973 19.637-32.355 15.5-15.5 35.812-23.254 56.082-23.254 20.312 0 40.621 7.75 56.125 23.254 2.3047 2.3047 4.4102 4.6914 6.3594 7.1953.47656-.59766.95312-1.1914 1.4297-1.7891 1.6289-1.9492 3.2578-3.7344 4.9297-5.4062 15.5-15.5 35.812-23.254 56.125-23.254s40.621 7.75 56.082 23.254c15.5 15.5 23.254 35.812 23.254 56.082 0 20.312-7.75 40.621-23.254 56.125-1.7109 1.7109-3.5391 3.3789-5.4062 4.9297-.59766.47656-1.1523.95312-1.75 1.4297 2.5039 1.9492 4.8906 4.0938 7.1953 6.3594 15.5 15.5 23.254 35.812 23.254 56.125s-7.75 40.621-23.254 56.125zM155.74 85.69c1.75-1.75 2.625-4.0547 2.625-6.3594 0-2.3047-.875-4.6094-2.625-6.3594s-4.0547-2.625-6.3594-2.625c-2.3047 0-4.6094.875-6.3594 2.625s-2.625 4.0547-2.625 6.3594c0 2.3047.875 4.6094 2.625 6.3594s4.0547 2.625 6.3594 2.625c2.1875 0 4.3711-.79688 6.082-2.3438l.27734-.27734zm-15.301-15.301-2.543-2.582c3.1797-3.1797 7.3125-4.7305 11.488-4.7305 4.1328 0 8.3086 1.5898 11.488 4.7305 2.7031 2.6641 4.2539 6.043 4.6523 9.5391 1.5898-1.1523 3.2188-2.2266 4.8477-3.2578-.35938-1.5117-.91406-2.9805-1.5898-4.4102-.99219-2.0273-2.3867-3.9766-4.0938-5.6836-4.2148-4.2148-9.7773-6.3203-15.301-6.3203-5.5234 0-11.051 2.1055-15.301 6.3203-4.2148 4.2148-6.3203 9.7383-6.3203 15.262 0 5.5234 2.1055 11.09 6.3203 15.301 1.75 1.7109 3.6562 3.1016 5.6836 4.0938 1.4297.71484 2.9023 1.2305 4.4102 1.6289 1.0352-1.668 2.1055-3.3008 3.2578-4.8906-3.4961-.39844-6.875-1.9492-9.5391-4.6523-3.1797-3.1797-4.7695-7.3125-4.7695-11.488 0-4.1719 1.5898-8.3086 4.7695-11.488l2.543 2.582zm-6.3594-6.3594-5.1289-5.1289c5.6445-5.6445 13.039-8.4648 20.43-8.4648 7.3945 0 14.785 2.8203 20.43 8.4648 2.2656 2.2656 4.0938 4.8477 5.4453 7.5898.63672 1.3125 1.1914 2.6641 1.6289 4.0156 1.6289-.79687 3.2578-1.5508 4.9297-2.2266-.67578-1.9883-1.5117-3.8945-2.543-5.7227-1.4688-2.6641-3.3789-5.168-5.6836-7.4727-6.6758-6.6758-15.461-10.016-24.207-10.016s-17.527 3.3398-24.207 10.016c-6.6758 6.6758-10.016 15.461-10.016 24.207 0 8.7852 3.3398 17.527 10.016 24.207 2.3047 2.2656 4.8086 4.1719 7.4727 5.6445 1.8672 1.0352 3.7773 1.9062 5.7617 2.543.67578-1.668 1.4297-3.3398 2.2266-4.9297-1.3906-.4375-2.7422-.99219-4.0547-1.6289-2.7422-1.3516-5.3242-3.1797-7.5898-5.4453-5.6445-5.6445-8.4648-12.996-8.4648-20.391s2.8203-14.785 8.4648-20.391l5.1289 5.1289zm-14.031-14.031c8.1094-8.1094 18.723-12.164 29.332-12.164 10.613 0 21.227 4.0547 29.332 12.164 2.7422 2.7422 5.0469 5.8047 6.875 9.1016 1.2305 2.1875 2.2656 4.4922 3.0586 6.7969 1.75-.51563 3.457-.99219 5.207-1.3906-.91406-2.8203-2.1445-5.5664-3.6172-8.1875-2.0273-3.5781-4.6094-6.9961-7.7109-10.137-9.1406-9.1406-21.145-13.711-33.148-13.711s-23.969 4.5703-33.148 13.711l-5.1289-5.1289 5.1289 5.1289c-9.1406 9.1406-13.711 21.145-13.711 33.148 0 12.004 4.5703 24.008 13.711 33.148 3.1016 3.1016 6.4805 5.6445 10.098 7.6719 2.625 1.4688 5.4062 2.7031 8.2266 3.6562.39844-1.75.875-3.4961 1.3906-5.2461-2.3867-.79688-4.6523-1.8281-6.875-3.0586-3.2578-1.8281-6.3203-4.1328-9.0625-6.875-8.1094-8.1094-12.164-18.723-12.164-29.332 0-10.613 4.0547-21.227 12.164-29.332zm-8.9023-8.9414c10.574-10.574 24.406-15.859 38.277-15.859 13.832 0 27.703 5.2852 38.277 15.859 3.5391 3.5391 6.5195 7.4727 8.8633 11.727.67578 1.1914 1.2734 2.3867 1.8672 3.5781.71484-2.3438 1.5117-4.6523 2.4648-6.957-1.1523-1.9492-2.3867-3.8555-3.7773-5.6836-1.668-2.2266-3.5391-4.4102-5.6055-6.4375h-.039063c-11.605-11.605-26.828-17.41-42.051-17.41s-30.445 5.8047-42.051 17.41c-11.645 11.605-17.449 26.828-17.449 42.051 0 15.223 5.8047 30.445 17.41 42.051 2.1055 2.1055 4.2539 3.9766 6.4805 5.6055 1.8281 1.3516 3.7344 2.625 5.6836 3.7773 2.3047-.91406 4.6094-1.75 6.957-2.4648-1.2305-.59766-2.4258-1.1914-3.6562-1.8672-4.1719-2.3867-8.1094-5.3242-11.645-8.8633-10.574-10.574-15.859-24.406-15.859-38.238s5.2852-27.703 15.859-38.277zm-3.8164-3.8164-5.1289-5.1289c13.039-13.039 30.09-19.516 47.18-19.516 17.051 0 34.145 6.5195 47.141 19.516h.039063c2.2656 2.3047 4.3711 4.7305 6.2812 7.2734.55469.75391 1.1133 1.5117 1.6289 2.2656.91406-1.7109 1.9492-3.418 2.9805-5.0859-.83594-1.1523-1.7109-2.2656-2.582-3.3008-1.3516-1.5898-2.8633-3.2578-4.5312-4.9297-14.07-14.07-32.512-21.105-50.996-21.105-18.441 0-36.887 7.0352-50.996 21.105-14.07 14.07-21.105 32.555-21.105 50.996 0 18.441 7.0352 36.926 21.105 50.996 1.6289 1.6289 3.2578 3.1406 4.9297 4.4922 1.0742.875 2.1875 1.75 3.3398 2.582 1.668-1.0742 3.3789-2.0664 5.0859-2.9805-.75391-.51562-1.5117-1.0742-2.2656-1.6289-2.582-1.9492-5.0078-4.0156-7.2734-6.2812-13.039-13.039-19.555-30.09-19.555-47.18s6.5195-34.145 19.555-47.18l5.1289 5.1289zm155.49 155.49c5.4453-5.4453 9.8555-11.566 13.156-18.047 2.7031-5.2461 4.6914-10.773 6.043-16.414-1.8672.16016-3.7773.27734-5.6445.35937-1.3516 5.168-3.3398 10.215-5.9609 15.023-3.0195 5.5234-6.8359 10.691-11.445 15.301-4.6523 4.6094-9.8164 8.4648-15.301 11.445-4.8086 2.625-9.8555 4.6094-15.023 5.9609-.039062 1.8672-.16016 3.7773-.35938 5.6445 5.6445-1.3125 11.168-3.3398 16.414-6.043 6.3594-3.2578 12.32-7.5508 17.688-12.84l.35938-.35938zm13.434-4.6523c3.4961.39844 6.875 1.9492 9.5391 4.6523 3.1797 3.1797 4.7695 7.3516 4.7695 11.488 0 4.1719-1.5898 8.3086-4.7695 11.488-3.1797 3.1797-7.3125 4.7695-11.488 4.7695-4.1328 0-8.3086-1.5898-11.488-4.7695-2.7031-2.6641-4.2539-6.043-4.6523-9.5391-1.5898 1.1523-3.2188 2.2266-4.8906 3.2578.35937 1.5117.91406 3.0195 1.6289 4.4531.99219 2.0273 2.3867 3.9766 4.0938 5.6445 4.2148 4.2148 9.7383 6.3203 15.301 6.3203 5.5234 0 11.051-2.1055 15.262-6.3203l5.1289 5.1289c-5.6445 5.6445-13.039 8.4648-20.391 8.4648-7.3945 0-14.746-2.8203-20.391-8.4648-2.2656-2.2656-4.0938-4.8477-5.4453-7.5898-.63672-1.3125-1.1914-2.6641-1.6289-4.0547-1.6289.79688-3.3008 1.5508-4.9688 2.2266.67578 1.9492 1.5117 3.8945 2.582 5.7617 1.5117 2.6641 3.3789 5.168 5.6836 7.4727 6.6758 6.6758 15.461 10.016 24.207 10.016 8.7461 0 17.527-3.3398 24.207-10.016l5.1289 5.0859c-8.1094 8.1094-18.723 12.164-29.332 12.164-10.613 0-21.227-4.0547-29.332-12.164-2.7422-2.7422-5.0469-5.8047-6.875-9.0625-1.2305-2.1875-2.2656-4.4922-3.0586-6.875-1.75.51562-3.457.99219-5.2461 1.3906.95312 2.8633 2.1445 5.6055 3.6562 8.2656 2.0273 3.5781 4.5703 6.957 7.7109 10.098 9.1406 9.1406 21.145 13.711 33.148 13.711s24.008-4.5703 33.148-13.711c9.1406-9.1406 13.711-21.145 13.711-33.148 0-12.004-4.5703-24.008-13.711-33.148-3.1406-3.1406-6.5195-5.6836-10.137-7.7109-2.625-1.4688-5.3672-2.7031-8.2266-3.6172-.39844 1.75-.875 3.4961-1.3906 5.207 2.3438.79688 4.6094 1.8281 6.8359 3.0586 3.3008 1.8281 6.3594 4.1328 9.1016 6.875 8.1094 8.1094 12.164 18.723 12.164 29.332 0 10.613-4.0547 21.227-12.164 29.332l-5.1289-5.1289c6.6758-6.6758 10.016-15.461 10.016-24.207s-3.3398-17.527-10.016-24.207c-2.3047-2.3047-4.8477-4.2148-7.4727-5.6836-1.8281-1.0352-3.7773-1.8672-5.7617-2.543-.67578 1.668-1.4297 3.3008-2.2266 4.9297 1.3906.4375 2.7422.99219 4.0547 1.6289 2.7422 1.3516 5.3242 3.1797 7.5898 5.4453 5.6445 5.6445 8.4648 12.996 8.4648 20.391 0 7.3945-2.8203 14.785-8.4648 20.391l-5.1289-5.1289c4.2148-4.2148 6.3203-9.7383 6.3203-15.262 0-5.5234-2.1055-11.09-6.3203-15.301-1.7109-1.7109-3.6172-3.0586-5.6836-4.0938-1.4297-.71484-2.9023-1.2305-4.4102-1.6289-.99219 1.668-2.1055 3.3008-3.2578 4.8906zm4.4102 22.496c1.75-1.75 2.625-4.0547 2.625-6.3594s-.875-4.6094-2.625-6.3594-4.0547-2.625-6.3594-2.625c-2.3047 0-4.6094.875-6.3594 2.625s-2.625 4.0547-2.625 6.3594.875 4.6094 2.625 6.3594 4.0547 2.625 6.3594 2.625c2.3047 0 4.6094-.875 6.3594-2.625zm16.613-55.367c1.1914.55469 2.3867 1.1914 3.5781 1.8281 4.2148 2.3867 8.1875 5.3242 11.688 8.8633v.039062c10.574 10.574 15.859 24.406 15.859 38.238s-5.2852 27.703-15.859 38.238l-5.1289-5.1289 5.1289 5.1289c-10.574 10.574-24.406 15.859-38.277 15.859-13.832 0-27.703-5.2852-38.277-15.859-3.5391-3.4961-6.4805-7.4336-8.8633-11.645-.67578-1.1914-1.3125-2.3867-1.8672-3.6172-.71484 2.3438-1.5117 4.6523-2.4648 6.957 1.1133 1.9062 2.3867 3.8164 3.7773 5.6836 1.6289 2.2266 3.4961 4.3711 5.6055 6.4805 11.605 11.605 26.828 17.41 42.051 17.41 15.223 0 30.445-5.8047 42.051-17.41 11.605-11.605 17.41-26.828 17.41-42.051 0-15.223-5.8047-30.445-17.41-42.094-2.1055-2.1055-4.2539-3.9766-6.4805-5.6055-1.8281-1.3516-3.7344-2.625-5.6836-3.7344-2.2656.91406-4.6094 1.75-6.957 2.4648zm14.668-6.082c.75391.51562 1.5117 1.0742 2.2656 1.6289 2.582 1.9492 5.0078 4.0156 7.2734 6.2812 13.039 13.039 19.555 30.129 19.555 47.18s-6.5195 34.145-19.555 47.18c-13.039 13.039-30.09 19.555-47.18 19.555-17.051 0-34.145-6.5195-47.18-19.555-2.2656-2.2266-4.332-4.6914-6.2812-7.2734-.55469-.75391-1.1133-1.5117-1.6289-2.2656-.91406 1.75-1.9492 3.418-3.0195 5.0859.83594 1.1523 1.7109 2.2656 2.625 3.3398 1.3125 1.5898 2.8203 3.2188 4.4922 4.8906 14.07 14.07 32.555 21.105 50.996 21.105s36.926-7.0352 50.996-21.105c14.07-14.07 21.105-32.555 21.105-50.996 0-18.441-7.0352-36.887-21.105-50.996-1.668-1.668-3.3008-3.1797-4.8906-4.4922-1.0742-.91406-2.1875-1.75-3.3398-2.625-1.668 1.0742-3.3789 2.0664-5.0859 3.0195zm11.25-7.3945c.59766.47656 1.1914.95312 1.7891 1.4297 1.9492 1.6289 3.7344 3.2578 5.4062 4.9297 9.3789 9.3789 15.938 20.508 19.637 32.355 3.6953-11.844 10.254-22.973 19.637-32.355 1.668-1.668 3.457-3.3008 5.4062-4.9297.59766-.47656 1.1523-.95312 1.75-1.4297-2.5039-1.9492-4.8906-4.0938-7.1953-6.3594-9.3789-9.3789-15.938-20.551-19.637-32.355-3.6953 11.844-10.254 22.973-19.637 32.355-2.3047 2.3047-4.6914 4.4102-7.1953 6.3594zm26.789 86.211c-3.6953 11.844-10.254 22.973-19.637 32.355l-2.543-2.543 2.543 2.543c-9.3789 9.3789-20.508 15.938-32.355 19.637 11.844 3.6953 22.973 10.254 32.355 19.637l-2.543 2.543 2.543-2.543c9.3789 9.3789 15.938 20.508 19.637 32.355 3.6953-11.844 10.254-22.973 19.637-32.355 9.3789-9.3789 20.508-15.938 32.355-19.637-11.844-3.6953-22.973-10.254-32.355-19.637l2.543-2.543-2.543 2.543c-9.3789-9.3789-15.938-20.508-19.637-32.355zm-99.488 51.988c-11.844-3.6953-22.973-10.254-32.355-19.637-1.668-1.668-3.3008-3.457-4.9297-5.4062-.47656-.59766-.95313-1.1914-1.4297-1.7891-1.9492 2.5039-4.0938 4.8906-6.3594 7.1953-9.3789 9.3789-20.508 15.938-32.355 19.637 11.844 3.6953 22.973 10.254 32.355 19.637 2.3047 2.3047 4.4102 4.6914 6.3594 7.1953.47656-.59766.95312-1.1914 1.4297-1.75 1.6289-1.9492 3.2578-3.7773 4.9297-5.4062 9.3789-9.3789 20.508-15.938 32.355-19.637zm-22.578-136.25c-.4375 3.457-1.9492 6.8359-4.6094 9.5v.039062c-2.6641 2.6641-6.043 4.2148-9.5391 4.6523 1.1523 1.5898 2.2266 3.2188 3.2578 4.8906 1.5117-.35938 2.9805-.91406 4.3711-1.5898 2.0273-.99219 3.9766-2.3867 5.6836-4.0938 1.7109-1.7109 3.1016-3.6562 4.0938-5.6836.71484-1.4297 1.2305-2.9023 1.5898-4.3711-1.668-1.0352-3.3008-2.1055-4.8906-3.2578zm-22.496 4.4102c1.75 1.75 4.0547 2.625 6.3594 2.625s4.6094-.875 6.3594-2.625 2.625-4.0547 2.625-6.3594c0-2.1875-.79688-4.3711-2.3438-6.082l-.27734-.27734c-1.75-1.75-4.0547-2.625-6.3594-2.625-2.3047 0-4.6094.875-6.3594 2.625s-2.625 4.0547-2.625 6.3594c0 2.3047.875 4.6094 2.625 6.3594zm33.863 2.4258c-.4375 1.3516-.95312 2.7031-1.6289 4.0156-1.3516 2.7812-3.1797 5.3242-5.4453 7.6328-2.2656 2.2656-4.8477 4.0938-7.6328 5.4453-1.3125.63672-2.6641 1.1914-4.0156 1.6289.79688 1.6289 1.5508 3.3008 2.2266 4.9297 1.9883-.67578 3.8945-1.5117 5.7227-2.543 2.6641-1.4688 5.168-3.3789 7.4727-5.6836 2.3047-2.3047 4.2148-4.8086 5.6836-7.4727 1.0352-1.8281 1.8672-3.7773 2.543-5.7227-1.668-.67578-3.3398-1.4297-4.9297-2.2266zm11.766 4.6523c-.79688 2.3438-1.8281 4.6094-3.0586 6.7969-1.8281 3.3008-4.1328 6.3594-6.875 9.1016-2.7422 2.7422-5.8047 5.0469-9.1016 6.875-2.1875 1.2305-4.4922 2.2266-6.7969 3.0586.51562 1.7109.99219 3.457 1.3906 5.207 2.8203-.95312 5.5664-2.1445 8.1875-3.6172 3.6172-2.0664 7.0352-4.6094 10.137-7.7109 3.1016-3.1016 5.6836-6.5195 7.7109-10.137 1.4688-2.625 2.7031-5.3672 3.6172-8.1875-1.75-.39844-3.4961-.875-5.207-1.3906zm12.402 2.7031c-1.1133 3.5781-2.625 7.0742-4.4922 10.414-2.3867 4.2148-5.3242 8.1484-8.8633 11.688-3.5781 3.5781-7.5117 6.5195-11.688 8.9023-3.3398 1.8672-6.8359 3.3789-10.414 4.4922.23828 1.8281.4375 3.6562.55469 5.4844 4.0547-1.1914 7.9883-2.7812 11.727-4.8086 4.8906-2.6641 9.4609-6.082 13.633-10.215 4.1719-4.1719 7.5508-8.7461 10.215-13.633 2.0273-3.7773 3.6562-7.7109 4.8477-11.727-1.8281-.12109-3.6562-.31641-5.4844-.55469zm-108.04 39.668c-1.7109-1.5508-3.8945-2.3438-6.082-2.3438-2.3047 0-4.6094.875-6.3594 2.625s-2.625 4.0547-2.625 6.3594c0 2.3047.875 4.6094 2.625 6.3594s4.0547 2.625 6.3594 2.625c2.3047 0 4.6094-.875 6.3594-2.625s2.625-4.0547 2.625-6.3594c0-2.3047-.875-4.6094-2.625-6.3594l-.27734-.27734zm-14.984 15.582-2.543 2.543c-3.1797-3.1797-4.7695-7.3125-4.7695-11.488 0-4.1719 1.5898-8.3086 4.7695-11.488 2.6641-2.6641 6.043-4.2148 9.5391-4.6523-1.1523-1.5898-2.2266-3.2188-3.2578-4.8906-1.5117.35938-2.9805.91406-4.4102 1.6289-2.0273.99219-3.9766 2.3867-5.6836 4.0938-4.2148 4.2148-6.3203 9.7383-6.3203 15.301 0 5.5234 2.1055 11.051 6.3203 15.262l-5.1289 5.1289 5.1289-5.1289c4.2148 4.2148 9.7383 6.3203 15.301 6.3203 5.5234 0 11.051-2.1055 15.301-6.3203 4.2148-4.2148 6.3203-9.7383 6.3203-15.262 0-5.5234-2.1055-11.09-6.3203-15.301l5.0859-5.1289-5.1289 5.1289c-13.039-13.039-19.555-30.09-19.555-47.18s6.5195-34.145 19.555-47.18c13.039-13.039 30.09-19.555 47.18-19.555 17.051 0 34.145 6.5195 47.18 19.555l-2.2656 2.2656 2.2656-2.2656c4.2148 4.2148 9.7773 6.3203 15.301 6.3203s11.051-2.1055 15.262-6.3203c4.2148-4.2148 6.3203-9.7383 6.3203-15.262 0-5.5234-2.1055-11.051-6.3203-15.262l5.1289-5.1289c5.6445 5.6445 8.4648 13.039 8.4648 20.391 0 7.3945-2.8203 14.746-8.4648 20.391s-13.039 8.4648-20.391 8.4648c-7.3945 0-14.746-2.8203-20.391-8.4648-11.605-11.605-26.828-17.41-42.051-17.41-15.223 0-30.445 5.8047-42.051 17.41-11.605 11.605-17.41 26.828-17.41 42.051s5.8047 30.445 17.41 42.051c5.6445 5.6445 8.4648 12.996 8.4648 20.391 0 7.3945-2.8203 14.746-8.4648 20.391-5.6445 5.6445-13.039 8.4648-20.43 8.4648-7.3945 0-14.785-2.8203-20.43-8.4648-5.6445-5.6445-8.4648-13.039-8.4648-20.391 0-7.3945 2.8203-14.746 8.4648-20.391 2.2656-2.2656 4.8477-4.0938 7.6328-5.4453 1.3125-.63672 2.6641-1.1914 4.0156-1.6289-.79688-1.6289-1.5508-3.2578-2.2266-4.9297-1.9883.67578-3.8945 1.5117-5.7227 2.543-2.7031 1.5117-5.2461 3.418-7.5117 5.6836-6.6758 6.6758-10.016 15.461-10.016 24.207 0 8.7852 3.3398 17.527 10.016 24.207 6.6758 6.6758 15.461 10.016 24.207 10.016s17.527-3.3398 24.207-10.016c6.6758-6.6758 10.016-15.461 10.016-24.207 0-8.7461-3.3398-17.527-10.016-24.207-10.574-10.574-15.859-24.406-15.859-38.238s5.2852-27.703 15.859-38.238c10.574-10.574 24.406-15.859 38.238-15.859s27.664 5.2852 38.238 15.859c6.6758 6.6758 15.461 10.016 24.207 10.016 8.7461 0 17.527-3.3398 24.207-10.016v-.039063c6.6758-6.6758 10.016-15.422 10.016-24.207 0-8.7461-3.3398-17.527-10.016-24.207l5.1289-5.1289-5.1289 5.1289c-6.6758-6.6758-15.461-10.016-24.207-10.016-8.7461 0-17.527 3.3398-24.207 10.016-2.3047 2.2656-4.1719 4.8086-5.6836 7.5117-1.0352 1.8281-1.8672 3.7344-2.543 5.7227 1.668.67578 3.3398 1.4297 4.9297 2.2266.4375-1.3906.99219-2.7422 1.6289-4.0156 1.3516-2.7422 3.1797-5.3242 5.4844-7.5898 5.6445-5.6445 12.996-8.4648 20.391-8.4648s14.785 2.8203 20.391 8.4648l-5.1289 5.1289c-4.2148-4.2148-9.7383-6.3203-15.262-6.3203-5.5234 0-11.09 2.1055-15.301 6.3203-1.7109 1.7109-3.0586 3.6172-4.0938 5.6836-.71484 1.4297-1.2305 2.9023-1.6289 4.4102 1.668.99219 3.3008 2.1055 4.8906 3.2578.4375-3.4961 1.9883-6.875 4.6523-9.5391 3.1797-3.1797 7.3516-4.7305 11.488-4.7305 4.1719 0 8.3086 1.5898 11.488 4.7305 3.1797 3.1797 4.7695 7.3125 4.7695 11.488 0 4.1719-1.5898 8.3086-4.7695 11.488-3.1797 3.1797-7.3125 4.7695-11.488 4.7695-4.1328 0-8.3086-1.5898-11.488-4.7695l-.31641-.35938c-14.031-13.832-32.355-20.789-50.637-20.789-18.441 0-36.926 7.0352-50.996 21.105-14.07 14.07-21.105 32.512-21.105 50.996 0 18.441 7.0352 36.887 21.105 50.996 3.1797 3.1797 4.7695 7.3125 4.7695 11.488 0 4.1719-1.5898 8.3086-4.7695 11.488-3.1797 3.1797-7.3516 4.7695-11.488 4.7695-4.1328 0-8.3086-1.5898-11.488-4.7695zm-17.848 17.848-2.543 2.543c-8.1094-8.1094-12.164-18.723-12.164-29.332 0-10.613 4.0547-21.227 12.164-29.332 2.7812-2.7812 5.8438-5.0469 9.1016-6.875 2.1875-1.2305 4.4922-2.2266 6.7969-3.0195-.51562-1.75-.99219-3.457-1.3906-5.207-2.8203.91406-5.5664 2.1445-8.1875 3.6172-3.6172 2.0664-7.0352 4.6094-10.137 7.7109-9.1406 9.1406-13.711 21.145-13.711 33.148s4.5703 23.969 13.711 33.148c9.1406 9.1406 21.145 13.711 33.148 13.711s24.008-4.5703 33.148-13.711c9.1406-9.1406 13.711-21.145 13.711-33.148s-4.5703-24.008-13.711-33.148c-8.1094-8.1094-12.164-18.723-12.164-29.332 0-10.613 4.0547-21.266 12.164-29.332 8.1094-8.1094 18.723-12.164 29.332-12.164 10.613 0 21.227 4.0547 29.332 12.164 9.1406 9.1406 21.145 13.711 33.148 13.711 12.004 0 24.008-4.5703 33.148-13.711s13.711-21.145 13.711-33.148c0-12.004-4.5703-23.969-13.711-33.109l5.1289-5.1289c10.574 10.574 15.859 24.406 15.859 38.277 0 13.832-5.2852 27.664-15.859 38.238v.039063c-10.574 10.574-24.406 15.859-38.277 15.859-13.832 0-27.664-5.2852-38.238-15.859l2.2656-2.2656-2.2656 2.2656c-6.6758-6.6758-15.461-10.016-24.207-10.016s-17.527 3.3398-24.207 10.016c-6.7188 6.7188-10.055 15.461-10.055 24.207s3.3398 17.527 10.016 24.207l-3.1406 3.1406 3.1406-3.1406c10.574 10.574 15.859 24.406 15.859 38.238s-5.2852 27.703-15.859 38.238c-10.574 10.574-24.406 15.859-38.277 15.859-13.832 0-27.703-5.2852-38.277-15.859-10.574-10.574-15.859-24.406-15.859-38.238s5.2852-27.664 15.859-38.238c3.5781-3.5781 7.5117-6.5195 11.688-8.9023 3.3398-1.8672 6.8359-3.3789 10.414-4.4922-.23828-1.8281-.4375-3.6562-.55469-5.4453-4.0547 1.1523-7.9883 2.7812-11.727 4.8086-4.8477 2.6641-9.4609 6.043-13.633 10.215-11.605 11.605-17.41 26.828-17.41 42.051 0 15.223 5.8047 30.445 17.41 42.051l-5.1289 5.1289 5.1289-5.1289c11.605 11.605 26.828 17.41 42.051 17.41s30.445-5.8047 42.051-17.41c11.605-11.605 17.41-26.828 17.41-42.051 0-15.223-5.8047-30.445-17.41-42.051l3.4961-3.5391-3.5391 3.4961c-5.6445-5.6445-8.4648-12.996-8.4648-20.391 0-7.3945 2.8203-14.746 8.4648-20.391 5.6445-5.6445 13.039-8.4648 20.391-8.4648 7.3945 0 14.785 2.8203 20.43 8.4648 11.605 11.605 26.828 17.41 42.094 17.41 15.223 0 30.445-5.8047 42.051-17.41 11.605-11.605 17.41-26.828 17.41-42.051 0-15.223-5.8047-30.445-17.41-42.051s-26.828-17.41-42.051-17.41-30.445 5.8047-42.051 17.41c-4.1719 4.1719-7.5508 8.7852-10.215 13.633-2.0273 3.7773-3.6562 7.7109-4.8086 11.727 1.8281.12109 3.6562.31641 5.4453.55469 1.1133-3.5781 2.625-7.0742 4.4922-10.414 2.3438-4.1719 5.3242-8.1484 8.8633-11.688 10.574-10.574 24.406-15.859 38.238-15.859s27.703 5.2852 38.277 15.859l-5.1289 5.1289c-9.1406-9.1406-21.145-13.711-33.148-13.711s-23.969 4.5703-33.148 13.711c-3.0586 3.0586-5.6445 6.4805-7.7109 10.098-1.5117 2.625-2.7031 5.3672-3.6562 8.1875 1.75.39844 3.4961.875 5.207 1.3906.79688-2.3438 1.8281-4.6094 3.0586-6.8359 1.8281-3.2578 4.1328-6.3203 6.875-9.0625 8.1094-8.1094 18.723-12.164 29.332-12.164 10.613 0 21.227 4.0547 29.332 12.164 8.1094 8.1094 12.164 18.723 12.164 29.332 0 10.613-4.0547 21.227-12.164 29.332l-.039062.039063c-8.1094 8.1094-18.723 12.164-29.332 12.164-10.613 0-21.227-4.0547-29.332-12.164l5.1289-5.1289-5.1289 5.1289c-9.1406-9.1406-21.145-13.711-33.148-13.711s-23.969 4.5703-33.148 13.711c-9.1406 9.1406-13.711 21.145-13.711 33.148 0 12.004 4.5703 24.008 13.711 33.148l-3.3008 3.3008 3.3008-3.2578c8.1094 8.1094 12.164 18.723 12.164 29.332 0 10.613-4.0547 21.227-12.164 29.332-8.1094 8.1094-18.723 12.164-29.332 12.164-10.613 0-21.227-4.0547-29.332-12.164l2.543-2.543zm-20.391 20.43c-13.039-13.039-19.555-30.09-19.555-47.18 0-17.051 6.5195-34.145 19.555-47.18 4.6094-4.6094 9.7773-8.4258 15.301-11.445 4.8086-2.625 9.8555-4.6094 15.023-5.9609.039063-1.8672.16016-3.7773.35938-5.6445-5.6445 1.3125-11.168 3.3398-16.414 6.043-6.4805 3.3398-12.602 7.7109-18.047 13.195-14.07 14.07-21.105 32.555-21.105 50.996s7.0352 36.926 21.105 50.996c14.07 14.07 32.555 21.105 50.996 21.105 18.441 0 36.926-7.0352 50.996-21.105 14.07-14.07 21.105-32.555 21.105-50.996s-7.0352-36.887-21.105-50.996c-3.1797-3.1797-4.7305-7.3125-4.7305-11.488 0-4.1328 1.5898-8.3086 4.7305-11.445v-.039063c3.1797-3.1797 7.3125-4.7695 11.488-4.7695 4.1719 0 8.3086 1.5898 11.488 4.7695 14.07 14.07 32.555 21.105 50.996 21.105 18.441 0 36.926-7.0352 50.996-21.105 14.07-14.07 21.105-32.555 21.105-50.996 0-18.441-7.0352-36.926-21.105-50.996-14.07-14.07-32.555-21.105-50.996-21.105-18.441 0-36.887 7.0352-50.996 21.105-5.4844 5.4844-9.8555 11.566-13.195 18.047-2.7031 5.2461-4.6914 10.773-6 16.414 1.8672-.19922 3.7773-.31641 5.6445-.35938 1.3516-5.168 3.3398-10.215 5.9219-15.023 3.0195-5.5234 6.7969-10.691 11.445-15.301 13.039-13.039 30.09-19.555 47.18-19.555 17.051 0 34.145 6.5195 47.18 19.555l-5.1289 5.1289 5.1289-5.1289c13.039 13.039 19.555 30.09 19.555 47.18 0 17.051-6.5195 34.145-19.555 47.18-13.039 13.039-30.09 19.555-47.18 19.555-17.051 0-34.145-6.5195-47.18-19.555l2.543-2.543-2.543 2.543c-4.2148-4.2148-9.7383-6.3203-15.301-6.3203-5.5234 0-11.051 2.1055-15.301 6.3203-4.2148 4.2148-6.3203 9.7383-6.3203 15.301 0 5.5234 2.1055 11.09 6.3203 15.301 13.039 13.039 19.555 30.09 19.555 47.18 0 17.051-6.5195 34.145-19.555 47.18-13.039 13.039-30.09 19.555-47.18 19.555-17.051 0-34.145-6.5195-47.18-19.555zm165.75-165.75c1.75 1.75 4.0547 2.625 6.3594 2.625 2.3047 0 4.6094-.875 6.3594-2.625s2.625-4.0547 2.625-6.3594c0-2.3047-.875-4.6094-2.625-6.3594s-4.0547-2.625-6.3594-2.625c-2.3047 0-4.6094.875-6.3594 2.625s-2.625 4.0547-2.625 6.3594c0 2.3047.875 4.6094 2.625 6.3594zm-112.21 388.57c-1.75-1.75-4.0547-2.625-6.3594-2.625s-4.6094.875-6.3594 2.625-2.625 4.0547-2.625 6.3594c0 2.3047.875 4.6094 2.625 6.3594s4.0547 2.625 6.3594 2.625 4.6094-.875 6.3594-2.625 2.625-4.0547 2.625-6.3594c0-2.3047-.875-4.6094-2.625-6.3594zm-17.848 17.848c-3.1797-3.1797-4.7695-7.3125-4.7695-11.488 0-4.1719 1.5898-8.3086 4.7695-11.488 2.6641-2.6641 6.043-4.2148 9.5391-4.6523-1.1523-1.5898-2.2266-3.2188-3.2578-4.8906-1.5117.35938-2.9805.91406-4.4102 1.6289-2.0273.99219-3.9766 2.3867-5.6836 4.0938-4.2148 4.2148-6.3203 9.7383-6.3203 15.301 0 5.5234 2.1055 11.051 6.3203 15.262l-5.1289 5.1289 5.1289-5.1289c4.2148 4.2148 9.7383 6.3203 15.301 6.3203 5.5234 0 11.051-2.1055 15.301-6.3203 1.7109-1.7109 3.1016-3.6562 4.0938-5.6445.71484-1.4297 1.2305-2.9023 1.6289-4.4102-1.668-.99219-3.3008-2.1055-4.8906-3.2578-.39844 3.4961-1.9492 6.875-4.6523 9.5391-3.1797 3.1797-7.3516 4.7695-11.488 4.7695-4.1719 0-8.3086-1.5898-11.488-4.7695zm-8.9414 8.9023c-5.6445-5.6445-8.4648-13.039-8.4648-20.391 0-7.3945 2.8203-14.746 8.4648-20.391 2.2656-2.2656 4.8477-4.0938 7.6328-5.4453 1.3125-.63672 2.6641-1.1914 4.0156-1.6289-.79688-1.6289-1.5508-3.3008-2.2266-4.9297-1.9883.67578-3.8945 1.5117-5.7227 2.543-2.7031 1.5117-5.207 3.3789-7.5117 5.6836-6.6758 6.6758-10.016 15.461-10.016 24.207 0 8.7852 3.3398 17.527 10.016 24.207 6.6758 6.6758 15.461 10.016 24.207 10.016s17.527-3.3398 24.207-10.016c2.3047-2.3047 4.1719-4.8086 5.6836-7.4727 1.0352-1.8672 1.9062-3.7773 2.582-5.7617-1.668-.67578-3.3398-1.4297-4.9688-2.2266-.4375 1.3906-.99219 2.7422-1.6289 4.0547-1.3516 2.7422-3.1797 5.3242-5.4453 7.5898-5.6445 5.6445-13.039 8.4648-20.43 8.4648-7.3945 0-14.785-2.8203-20.43-8.4648zm-6.3594 6.3594-2.543 2.543c-8.1094-8.1094-12.164-18.723-12.164-29.332 0-10.613 4.0547-21.227 12.164-29.332 2.7812-2.7422 5.8438-5.0469 9.1016-6.875 2.1875-1.2305 4.4922-2.2656 6.8359-3.0586-.51562-1.7109-.99219-3.457-1.3906-5.207-2.8203.91406-5.5664 2.1445-8.1875 3.6172-3.6172 2.0664-7.0352 4.6094-10.137 7.7109-9.1406 9.1406-13.711 21.145-13.711 33.148s4.5703 24.008 13.711 33.148c9.1406 9.1406 21.145 13.711 33.148 13.711 12.004 0 24.008-4.5703 33.148-13.711 3.1016-3.1016 5.6836-6.5195 7.7109-10.055 1.4688-2.625 2.7031-5.4062 3.6562-8.2266-1.75-.39844-3.4961-.875-5.207-1.3906-.79688 2.3867-1.8281 4.6523-3.0586 6.875-1.8281 3.2578-4.0938 6.3203-6.875 9.0625-8.1094 8.1094-18.723 12.164-29.332 12.164-10.613 0-21.227-4.0547-29.332-12.164l2.543-2.543zm-8.5078 8.5078-2.9805 2.9805c-10.574-10.574-15.859-24.406-15.859-38.238s5.2852-27.664 15.859-38.238c3.5781-3.5781 7.5117-6.5586 11.688-8.9023 1.1914-.67578 2.3867-1.2734 3.5781-1.8281-2.3438-.71484-4.6523-1.5117-6.957-2.4648-1.9492 1.1523-3.8555 2.3867-5.6836 3.7773-2.2266 1.6289-4.3711 3.5391-6.4805 5.6445-11.605 11.605-17.41 26.828-17.41 42.051s5.8047 30.445 17.41 42.051c11.605 11.605 26.828 17.41 42.051 17.41 15.223 0 30.445-5.8047 42.051-17.41 2.0273-2.0273 3.8945-4.1719 5.6055-6.4805 1.3906-1.8281 2.625-3.7344 3.7773-5.6836-.91406-2.3047-1.75-4.6094-2.4648-6.957-.55469 1.2305-1.1914 2.4258-1.8672 3.6562-2.3867 4.2148-5.3242 8.1484-8.8633 11.645-10.574 10.574-24.406 15.859-38.277 15.859-13.832 0-27.703-5.2852-38.277-15.859l2.9805-2.9805zm-11.926 11.926c-13.039-13.039-19.555-30.09-19.555-47.18 0-17.051 6.5195-34.145 19.555-47.18 2.2656-2.2656 4.6914-4.332 7.2734-6.2812.75391-.55469 1.5117-1.1133 2.2656-1.6289-1.75-.91406-3.457-1.9492-5.0859-3.0195-1.1523.83594-2.2656 1.7109-3.3398 2.625-1.668 1.3906-3.3008 2.8633-4.9297 4.4922-14.07 14.07-21.105 32.555-21.105 50.996s7.0352 36.926 21.105 50.996c14.07 14.07 32.555 21.105 50.996 21.105 18.441 0 36.926-7.0352 50.996-21.105 1.668-1.668 3.1797-3.3008 4.4922-4.9297.91406-1.1133 1.7891-2.1875 2.625-3.3398-1.0742-1.668-2.0664-3.3789-3.0195-5.0859-.51562.75391-1.0742 1.5117-1.6289 2.2656-1.8672 2.5039-3.9766 4.9297-6.2812 7.2734-12.996 13.039-30.09 19.555-47.18 19.555-17.051 0-34.145-6.5195-47.18-19.555zm58.668-58.668.31641.35938c14.031 13.832 32.355 20.789 50.637 20.789 18.324 0 36.605-6.918 50.637-20.789l.31641-.35938c3.1797-3.1797 7.3125-4.7695 11.488-4.7695 4.1719 0 8.3086 1.5898 11.488 4.7695 3.1797 3.1797 4.7695 7.3125 4.7695 11.488 0 4.1719-1.5898 8.3086-4.7695 11.488-3.1797 3.1797-7.3125 4.7695-11.488 4.7695-4.1328 0-8.3086-1.5898-11.488-4.7305-2.6641-2.6641-4.2148-6.043-4.6523-9.5391-1.5898 1.1523-3.2188 2.2266-4.8477 3.2578.35938 1.5117.91406 2.9805 1.5898 4.4102 1.0352 2.0664 2.3867 3.9766 4.0938 5.6836 4.2148 4.2148 9.7383 6.3203 15.301 6.3203 5.5234 0 11.051-2.1055 15.262-6.3203l5.1289 5.1289c-5.6445 5.6445-13.039 8.4648-20.391 8.4648-7.3945 0-14.746-2.8203-20.391-8.4648-2.2656-2.3047-4.0938-4.8477-5.4453-7.6328-.63672-1.3125-1.1914-2.6641-1.6289-4.0156-1.6289.79688-3.3008 1.5508-4.9297 2.2266.67578 1.9883 1.5117 3.8945 2.543 5.7227 1.5117 2.7031 3.418 5.2461 5.6836 7.5117 6.6758 6.6758 15.461 10.016 24.207 10.016s17.527-3.3398 24.207-10.016l5.1289 5.0859-5.1289-5.1289c6.6758-6.6758 10.016-15.461 10.016-24.207 0-8.7461-3.3398-17.527-10.016-24.207-6.6758-6.6758-15.461-10.016-24.207-10.016s-17.527 3.3398-24.207 10.016l-3.3008-3.3008 3.2578 3.3008c-10.574 10.574-24.406 15.859-38.238 15.859s-27.703-5.2852-38.277-15.859c-10.574-10.574-15.859-24.406-15.859-38.238s5.2852-27.703 15.859-38.238c6.6758-6.6758 10.016-15.461 10.016-24.246 0-8.7461-3.3398-17.527-10.016-24.207-6.6758-6.6758-15.461-10.016-24.207-10.016s-17.527 3.3398-24.207 10.016c-6.6758 6.6758-10.016 15.461-10.016 24.207 0 8.7852 3.3398 17.527 10.016 24.246 2.3047 2.3047 4.8086 4.1719 7.5117 5.6836 1.8281 1.0352 3.7344 1.8672 5.7227 2.543.67578-1.668 1.4297-3.3008 2.2266-4.9297-1.3906-.4375-2.7422-.99219-4.0156-1.6289-2.7812-1.3516-5.3242-3.1797-7.6328-5.4453-5.6445-5.6445-8.4648-13.039-8.4648-20.43 0-7.3945 2.8203-14.785 8.4648-20.43l2.582 2.543-2.543-2.543c5.6445-5.6445 13.039-8.4648 20.391-8.4648 7.3945 0 14.746 2.8203 20.391 8.4648s8.4648 13.039 8.4648 20.43c0 7.3945-2.8203 14.746-8.4648 20.391l-4.3711-4.3711 4.3711 4.3711c-11.645 11.645-17.449 26.828-17.449 42.051 0 15.223 5.8047 30.445 17.41 42.051 11.645 11.605 26.828 17.41 42.094 17.41 15.223 0 30.445-5.8047 42.051-17.41 5.6445-5.6445 12.996-8.4648 20.391-8.4648s14.785 2.8203 20.391 8.4648c5.6445 5.6445 8.4648 13.039 8.4648 20.391 0 7.3945-2.8203 14.785-8.4648 20.391l-5.1289-5.1289c4.2148-4.2148 6.3203-9.7383 6.3203-15.262s-2.1055-11.09-6.3203-15.301c-4.2148-4.2148-9.7383-6.3203-15.262-6.3203-5.5234 0-11.09 2.1055-15.301 6.3203l-3.3008-3.3008 3.2578 3.3008c-13.039 13.039-30.09 19.555-47.18 19.555s-34.145-6.5195-47.18-19.555c-13.039-13.039-19.555-30.09-19.555-47.18s6.5195-34.145 19.555-47.18c4.2148-4.2148 6.3203-9.7773 6.3203-15.301 0-5.5234-2.1055-11.051-6.3203-15.301-4.2148-4.2148-9.7383-6.3203-15.301-6.3203-5.5234 0-11.09 2.1055-15.301 6.3203-4.2148 4.2148-6.3203 9.7383-6.3203 15.301 0 5.5234 2.1055 11.09 6.3203 15.301 1.75 1.7109 3.6562 3.1016 5.6836 4.0938 1.4297.71484 2.9023 1.2305 4.4102 1.6289.99219-1.668 2.1055-3.3008 3.2578-4.8906-3.4961-.39844-6.875-1.9492-9.5391-4.6523-3.1797-3.1797-4.7695-7.3125-4.7695-11.488 0-4.1719 1.5898-8.3086 4.7695-11.488 3.1797-3.1797 7.3125-4.7695 11.488-4.7695 4.1328 0 8.3086 1.5898 11.488 4.7695 3.1797 3.1797 4.7695 7.3125 4.7695 11.488 0 4.1719-1.5898 8.3086-4.7695 11.488-14.07 14.07-21.105 32.512-21.105 50.996 0 18.441 7.0352 36.926 21.105 50.996zm101.95-101.95-.31641-.35938c-5.4062-5.3242-11.367-9.5781-17.727-12.84-5.2461-2.7031-10.773-4.6914-16.414-6 .16016 1.8672.27734 3.7773.35938 5.6445 5.168 1.3516 10.215 3.3398 15.023 5.9609 5.4844 2.9805 10.652 6.7969 15.301 11.445 4.6523 4.6094 8.4648 9.7773 11.445 15.301 2.625 4.8086 4.6094 9.8555 5.9609 15.023 1.8672.039063 3.7773.16016 5.6445.35938-1.3125-5.6445-3.3398-11.168-6.043-16.414-3.3398-6.4805-7.7109-12.602-13.156-18.047zm-4.6523-13.434c.4375-3.4961 1.9883-6.875 4.6523-9.5391 3.1797-3.1797 7.3125-4.7695 11.488-4.7695 4.1719 0 8.3086 1.5898 11.488 4.7695l-5.1289 5.1289 5.1289-5.1289c3.1797 3.1797 4.7695 7.3125 4.7695 11.488 0 4.1719-1.5898 8.3086-4.7695 11.488-2.6641 2.6641-6.082 4.2148-9.5391 4.6523 1.1523 1.5898 2.2266 3.2188 3.2578 4.8906 1.5117-.35938 3.0195-.91406 4.4531-1.6289 2.0273-.99219 3.9336-2.3867 5.6445-4.0938 4.2148-4.2148 6.3203-9.7383 6.3203-15.301 0-5.5234-2.1055-11.051-6.3203-15.301-4.2148-4.2148-9.7383-6.3203-15.262-6.3203-5.5234 0-11.09 2.1055-15.301 6.3203-1.7109 1.75-3.1016 3.6562-4.0938 5.6836-.71484 1.4297-1.2305 2.9023-1.6289 4.4102 1.668 1.0352 3.3008 2.1055 4.8906 3.2578zm22.496-4.4102c-1.75-1.75-4.0547-2.625-6.3594-2.625-2.3047 0-4.6094.875-6.3594 2.625-1.75 1.7891-2.625 4.0938-2.625 6.3594 0 2.3047.875 4.6094 2.625 6.3594l.27734.27734c1.7109 1.5898 3.8945 2.3867 6.082 2.3867 2.3047 0 4.6094-.875 6.3594-2.625s2.625-4.0547 2.625-6.3594c0-2.3047-.875-4.6094-2.625-6.3594zm-33.863-2.3867c.4375-1.3906.99219-2.7422 1.6289-4.0547 1.3516-2.7812 3.1797-5.3672 5.4453-7.6328 5.6445-5.6445 13.039-8.4648 20.43-8.4648 7.3945 0 14.785 2.8203 20.391 8.4648 5.6445 5.6445 8.4648 13.039 8.4648 20.43 0 7.3945-2.8203 14.746-8.4648 20.391-2.2656 2.2656-4.8477 4.0938-7.5898 5.4453-1.3125.63672-2.6641 1.1914-4.0547 1.6289.79688 1.6289 1.5508 3.3008 2.2266 4.9297 1.9883-.67578 3.8945-1.5117 5.7617-2.582 2.6641-1.4688 5.168-3.3789 7.4727-5.6836 6.6758-6.6758 10.016-15.461 10.016-24.207s-3.3398-17.527-10.016-24.207l5.1289-5.1289-5.1289 5.1289c-6.6758-6.6758-15.461-10.016-24.207-10.016-8.7461 0-17.527 3.3398-24.207 10.016-2.3047 2.3047-4.2148 4.8086-5.6836 7.4727-1.0352 1.8672-1.8672 3.7773-2.543 5.7227 1.668.67578 3.3398 1.4297 4.9688 2.2266zm-11.766-4.6523c.79688-2.3438 1.8281-4.6523 3.0586-6.8359 1.8281-3.3008 4.1328-6.3594 6.875-9.0625 8.1094-8.1094 18.723-12.164 29.332-12.164 10.613 0 21.227 4.0547 29.332 12.164 8.1094 8.1094 12.164 18.723 12.164 29.332 0 10.613-4.0547 21.227-12.164 29.332v.039062c-2.7422 2.7422-5.8047 5.0469-9.0625 6.8359-2.1875 1.2305-4.4922 2.2656-6.875 3.0586.51562 1.7109.99219 3.457 1.3906 5.207 2.8633-.95312 5.6055-2.1445 8.2656-3.6562 3.6172-2.0273 6.9961-4.5703 10.098-7.6719 9.1406-9.1406 13.711-21.145 13.711-33.148s-4.5703-23.969-13.711-33.109l5.1289-5.1289-5.1289 5.1289c-9.1406-9.1406-21.145-13.711-33.148-13.711s-23.969 4.5703-33.148 13.711c-3.1016 3.1016-5.6836 6.5195-7.7109 10.098-1.4688 2.625-2.7031 5.4062-3.6172 8.2266 1.75.39844 3.4961.875 5.2461 1.3906zm-9.7383-9.5781c.55469-1.1914 1.1914-2.3867 1.8281-3.5781 2.3867-4.2148 5.3242-8.1484 8.8633-11.688 10.574-10.574 24.406-15.859 38.238-15.859s27.703 5.2852 38.277 15.859 15.859 24.406 15.859 38.238-5.2852 27.664-15.859 38.238v.039063c-3.5391 3.5391-7.4727 6.4805-11.645 8.8242-1.1914.67578-2.3867 1.3125-3.6172 1.8672 2.3438.71484 4.6523 1.5117 6.957 2.4648 1.9492-1.1523 3.8555-2.3867 5.6836-3.7773 2.2266-1.668 4.4102-3.5391 6.4375-5.6055 11.605-11.645 17.41-26.871 17.41-42.094 0-15.223-5.8047-30.445-17.41-42.051-11.605-11.645-26.828-17.449-42.051-17.449s-30.445 5.8047-42.051 17.41c-2.1055 2.1055-3.9766 4.2539-5.6055 6.4805-1.3516 1.8281-2.625 3.6953-3.7344 5.6445.91406 2.3047 1.75 4.6094 2.4648 6.957zm-6.082-14.668c.51562-.75391 1.0742-1.5117 1.6289-2.2656 1.9492-2.582 4.0156-5.0078 6.2812-7.2734 13.039-13.039 30.09-19.555 47.18-19.555s34.145 6.5195 47.18 19.555l-5.1289 5.1289 5.1289-5.1289c13.039 13.039 19.555 30.09 19.555 47.18s-6.5195 34.145-19.555 47.18c-2.3047 2.2656-4.7305 4.3711-7.2734 6.2812-.75391.55469-1.5117 1.1133-2.2656 1.6289 1.7109.91406 3.418 1.9492 5.0859 3.0195 1.1523-.83594 2.2656-1.7109 3.3008-2.582 1.668-1.3906 3.3008-2.9023 4.9297-4.4922 14.07-14.07 21.105-32.555 21.105-50.996 0-18.441-7.0352-36.926-21.105-50.996-14.07-14.07-32.555-21.105-50.996-21.105s-36.887 7.0352-50.996 21.105c-1.668 1.668-3.1797 3.3008-4.4922 4.9297-.91406 1.0742-1.7891 2.1875-2.582 3.3008 1.0742 1.668 2.0664 3.3789 3.0195 5.0859zm103.98 100.12c2.5039 1.9492 4.8906 4.0938 7.1953 6.3594 9.3789 9.3789 15.938 20.508 19.637 32.355 3.6953-11.844 10.254-22.973 19.637-32.355 2.3047-2.3047 4.6914-4.4102 7.1953-6.3594-.59766-.4375-1.1523-.91406-1.75-1.3906-1.9062-1.5898-3.6953-3.2188-5.4062-4.9297-9.3789-9.3789-15.938-20.508-19.637-32.355-3.6953 11.844-10.254 22.973-19.637 32.355-1.7109 1.7109-3.5391 3.3398-5.4062 4.9297-.59766.47656-1.1523.95312-1.75 1.4297zm-109.43-16.137c3.4961.4375 6.875 1.9883 9.5391 4.6523 2.6641 2.6641 4.2148 6.043 4.6523 9.5391 1.5898-1.1523 3.2188-2.2266 4.8906-3.2578-.35938-1.5117-.91406-2.9805-1.5898-4.4102-.99219-2.0273-2.3867-3.9766-4.0938-5.6836-1.7109-1.7109-3.6562-3.1016-5.6836-4.0938-1.4297-.71484-2.9023-1.2305-4.3711-1.5898-1.0352 1.668-2.1055 3.3008-3.2578 4.8906zm4.6914 22.219c1.5898-1.7109 2.3438-3.8945 2.3438-6.082 0-2.3047-.875-4.6094-2.625-6.3594s-4.0938-2.625-6.3594-2.625c-2.3047 0-4.6094.875-6.3594 2.625s-2.625 4.0547-2.625 6.3594.875 4.6094 2.625 6.3594 4.0938 2.625 6.3594 2.625c2.3047 0 4.6094-.875 6.3594-2.625l.27734-.27734zm-12.996-12.441-5.1289-5.1289c14.07-14.07 21.105-32.555 21.105-50.996s-7.0352-36.887-21.105-50.996c-14.07-14.07-32.555-21.105-50.996-21.105-18.441 0-36.887 7.0352-50.996 21.105-14.07 14.07-21.105 32.555-21.105 50.996s7.0352 36.926 21.105 50.996c5.4844 5.4844 11.566 9.8984 18.047 13.195 5.2461 2.7031 10.773 4.6914 16.414 6.043-.16016-1.8672-.27734-3.7773-.35937-5.6445-5.168-1.3516-10.215-3.3398-15.023-5.9609-5.4844-2.9805-10.652-6.7969-15.301-11.445-13.039-13.039-19.555-30.09-19.555-47.18 0-17.051 6.5195-34.145 19.555-47.141v-.039062h.039062c13.039-13.039 30.09-19.555 47.141-19.555s34.145 6.5195 47.141 19.555h.039063c13.039 13.039 19.516 30.09 19.516 47.18 0 17.051-6.5195 34.145-19.516 47.141v.039063c-4.2148 4.2148-6.3203 9.7383-6.3203 15.301 0 5.5234 2.1055 11.09 6.3203 15.301 4.2148 4.2148 9.7773 6.3203 15.301 6.3203s11.09-2.1055 15.301-6.3203l2.543 2.543-2.543-2.543c13.039-13.039 30.09-19.555 47.18-19.555s34.145 6.5195 47.18 19.555c13.039 13.039 19.555 30.129 19.555 47.18s-6.5195 34.145-19.555 47.18l-2.543-2.543 2.543 2.543c-13.039 13.039-30.09 19.555-47.18 19.555-17.051 0-34.145-6.5195-47.18-19.555-4.6094-4.6094-8.4648-9.7773-11.445-15.301-2.625-4.8086-4.6094-9.8555-5.9609-15.023-1.8672-.039062-3.7773-.16016-5.6445-.35937 1.3125 5.6445 3.3398 11.168 6 16.414 3.3398 6.4805 7.75 12.602 13.195 18.086 14.07 14.07 32.555 21.105 50.996 21.105 18.441 0 36.926-7.0352 50.996-21.105 14.07-14.07 21.105-32.555 21.105-50.996s-7.0352-36.887-21.105-50.996c-14.07-14.07-32.512-21.105-50.996-21.105-18.441 0-36.887 7.0352-50.996 21.105-3.1797 3.1797-7.3125 4.7695-11.488 4.7695-4.1719 0-8.3086-1.5898-11.488-4.7695s-4.7305-7.3125-4.7305-11.445c0-4.1719 1.5898-8.3086 4.7305-11.488l5.1289 5.1289zm15.145-21.145c1.3906.4375 2.7031.95312 4.0156 1.6289 2.7422 1.3516 5.3242 3.1797 7.5898 5.4453 2.3047 2.2656 4.0938 4.8477 5.4844 7.6328.63672 1.3125 1.1914 2.6641 1.6289 4.0156 1.6289-.79688 3.3008-1.5508 4.9297-2.2266-.67578-1.9883-1.5117-3.8945-2.543-5.7227-1.4688-2.6641-3.3789-5.168-5.6836-7.4727s-4.8086-4.2148-7.4727-5.6836c-1.8281-1.0352-3.7773-1.8672-5.7227-2.543-.67578 1.668-1.4297 3.3008-2.2266 4.9297zm4.6523-11.766c2.3438.79688 4.6094 1.8281 6.8359 3.0586 3.3008 1.8281 6.3594 4.1328 9.1016 6.875 2.7422 2.7422 5.0469 5.8047 6.875 9.1016 1.2305 2.1875 2.2656 4.4922 3.0586 6.7969 1.7109-.51562 3.457-.99219 5.207-1.3906-.95312-2.8203-2.1445-5.5664-3.6172-8.1875-2.0273-3.5781-4.6094-6.9961-7.7109-10.137-3.1406-3.1406-6.5586-5.6836-10.137-7.75-2.625-1.4688-5.3672-2.7031-8.1875-3.6172-.39844 1.75-.875 3.4961-1.3906 5.207zm2.7031-12.363c3.5781 1.1133 7.0742 2.625 10.414 4.4922 4.2148 2.3867 8.1875 5.3672 11.727 8.8633 3.5391 3.5391 6.4805 7.4727 8.8633 11.727 1.8672 3.3398 3.3789 6.8359 4.4922 10.414 1.8281-.23828 3.6562-.4375 5.4844-.55469-1.1914-4.0547-2.7812-7.9883-4.8086-11.727-2.6641-4.8477-6.043-9.4609-10.215-13.633-4.1328-4.1719-8.7461-7.5508-13.633-10.215-3.7773-2.0273-7.7109-3.6562-11.727-4.8086-.12109 1.8281-.31641 3.6562-.55469 5.4844zm39.984 107.75c-1.75 1.75-2.625 4.0547-2.625 6.3594 0 2.3047.875 4.6094 2.625 6.3594s4.0547 2.625 6.3594 2.625c2.3047 0 4.6094-.875 6.3594-2.625l5.1289 5.1289-5.1289-5.1289c1.75-1.75 2.625-4.0547 2.625-6.3594 0-2.3047-.875-4.6094-2.625-6.3594s-4.0547-2.625-6.3594-2.625c-2.3047 0-4.6094.875-6.3594 2.625l-3.3008-3.3008zm35.691 35.691c-8.1094 8.1094-18.723 12.164-29.332 12.164-10.613 0-21.227-4.0547-29.332-12.164-2.7812-2.7812-5.0469-5.8438-6.875-9.0625-1.2305-2.1875-2.2266-4.4922-3.0586-6.8359-1.7109.51562-3.457.99219-5.207 1.3906.91406 2.8203 2.1445 5.5664 3.6172 8.1875 2.0664 3.6172 4.6094 7.0352 7.7109 10.098 9.1406 9.1406 21.145 13.711 33.148 13.711s23.969-4.5703 33.148-13.711l5.1289 5.1289c-10.574 10.574-24.406 15.859-38.277 15.859-13.832 0-27.703-5.2852-38.277-15.859-3.5781-3.5781-6.5195-7.5117-8.9023-11.688-1.8672-3.3398-3.3789-6.8359-4.4922-10.414-1.8281.23828-3.6562.4375-5.4453.55469 1.1914 4.0547 2.7812 7.9883 4.8086 11.727 2.6641 4.8477 6.043 9.4609 10.215 13.633 11.605 11.605 26.828 17.41 42.051 17.41s30.445-5.8047 42.051-17.41c11.605-11.605 17.41-26.828 17.41-42.051s-5.8047-30.445-17.41-42.051c-11.605-11.605-26.828-17.41-42.051-17.41s-30.445 5.8047-42.094 17.41c-5.6445 5.6445-13.039 8.4648-20.43 8.4648-7.3945 0-14.785-2.8203-20.391-8.4648-5.6445-5.6445-8.4648-13.039-8.4648-20.43 0-7.3945 2.8203-14.746 8.4648-20.391l2.543 2.543-2.543-2.543c11.605-11.605 17.41-26.828 17.41-42.051 0-15.223-5.8047-30.445-17.41-42.051l-.039063-.039063c-11.605-11.605-26.828-17.41-42.051-17.41s-30.445 5.8047-42.051 17.41l-5.1289-5.0859 5.0859 5.1289c-11.605 11.605-17.41 26.828-17.41 42.051s5.8047 30.445 17.41 42.051c4.1328 4.1719 8.7461 7.5508 13.633 10.215 3.7773 2.0273 7.7109 3.6562 11.727 4.8086.12109-1.8281.31641-3.6562.55469-5.4453-3.5781-1.1133-7.0742-2.625-10.414-4.4922-4.1719-2.3438-8.1484-5.3242-11.688-8.8633-10.574-10.574-15.859-24.406-15.859-38.238s5.2852-27.703 15.859-38.238c10.574-10.574 24.406-15.859 38.277-15.859 13.832 0 27.703 5.2852 38.277 15.859 10.574 10.574 15.859 24.406 15.859 38.238s-5.2852 27.664-15.859 38.238l-4.2539-4.2539 4.2539 4.2539c-6.6758 6.6758-10.016 15.461-10.016 24.207s3.3398 17.527 10.016 24.207c6.6758 6.6758 15.461 10.016 24.207 10.016 8.7461 0 17.527-3.3398 24.207-10.016l5.1289 5.1289-5.1289-5.1289c10.574-10.574 24.406-15.859 38.277-15.859 13.832 0 27.703 5.2852 38.277 15.859 10.574 10.574 15.859 24.406 15.859 38.277 0 13.832-5.2852 27.703-15.859 38.277l-5.1289-5.1289c9.1406-9.1406 13.711-21.145 13.711-33.148 0-12.004-4.5703-23.969-13.711-33.148-9.1406-9.1406-21.145-13.711-33.148-13.711s-23.969 4.5703-33.148 13.711c-8.1094 8.1094-18.723 12.164-29.332 12.164-10.613 0-21.227-4.0547-29.332-12.164-8.1094-8.1094-12.164-18.723-12.164-29.332 0-10.613 4.0547-21.227 12.164-29.332 9.1406-9.1406 13.711-21.145 13.711-33.148 0-12.004-4.5703-23.969-13.711-33.148-9.1406-9.1406-21.145-13.711-33.148-13.711s-23.969 4.5703-33.148 13.711c-9.1406 9.1406-13.711 21.145-13.711 33.148 0 12.004 4.5703 24.008 13.711 33.148 3.1016 3.1016 6.4805 5.6445 10.137 7.7109 2.625 1.4688 5.3672 2.7031 8.1875 3.6562.39844-1.75.875-3.4961 1.3906-5.207-2.3438-.79688-4.6094-1.8281-6.7969-3.0586-3.2578-1.8281-6.3203-4.1328-9.1016-6.875-8.1094-8.1094-12.164-18.723-12.164-29.332 0-10.613 4.0547-21.227 12.164-29.332 8.1094-8.1094 18.723-12.164 29.332-12.164 10.613 0 21.227 4.0547 29.332 12.164 8.1094 8.1094 12.164 18.723 12.164 29.332 0 10.613-4.0547 21.227-12.164 29.332l-3.6562-3.6562 3.6562 3.6562c-9.1406 9.1406-13.711 21.145-13.711 33.148 0 12.004 4.5703 24.008 13.711 33.148 9.1406 9.1406 21.145 13.711 33.148 13.711s24.008-4.5703 33.148-13.711c8.1094-8.1094 18.723-12.164 29.332-12.164 10.613 0 21.227 4.0547 29.332 12.164 8.1094 8.1094 12.164 18.723 12.164 29.332 0 10.613-4.0547 21.227-12.164 29.332zm-160.62-160.62c-1.75 1.75-2.625 4.0547-2.625 6.3594 0 2.3047.875 4.6094 2.625 6.3594s4.0547 2.625 6.3594 2.625c2.1875 0 4.3711-.79688 6.082-2.3867l.23828-.27734c1.75-1.75 2.625-4.0547 2.625-6.3594s-.875-4.6094-2.625-6.3594-4.0547-2.625-6.3594-2.625-4.6094.875-6.3594 2.625zm15.301 15.301 2.5469 2.5469zm386.03 109.66c-1.75 1.75-2.625 4.0547-2.625 6.3594 0 2.3047.875 4.6094 2.625 6.3594s4.0547 2.625 6.3594 2.625c2.3047 0 4.6094-.875 6.3594-2.625s2.625-4.0547 2.625-6.3594c0-2.3047-.875-4.6094-2.625-6.3594s-4.0547-2.625-6.3594-2.625c-2.3047 0-4.6094.875-6.3594 2.625zm17.848 17.848c-3.1797 3.1797-7.3125 4.7695-11.488 4.7695-4.1719 0-8.3086-1.5898-11.488-4.7695-2.6641-2.6641-4.2148-6.043-4.6523-9.5391-1.5898 1.1523-3.2188 2.2266-4.8477 3.2578.35938 1.5117.91406 2.9805 1.6289 4.4102.99219 2.0664 2.3867 3.9766 4.0938 5.6836 4.2539 4.2148 9.7773 6.3203 15.301 6.3203 5.5234 0 11.051-2.1055 15.301-6.3203 4.2148-4.2148 6.3203-9.7383 6.3203-15.262 0-5.5234-2.1055-11.09-6.3203-15.301-1.7109-1.7109-3.6562-3.1016-5.6836-4.0938-1.4297-.71484-2.9023-1.2305-4.4531-1.6289-.99219 1.668-2.1055 3.3008-3.2578 4.8906 3.4961.39844 6.875 1.9492 9.5391 4.6523 3.1797 3.1797 4.7695 7.3125 4.7695 11.488 0 4.1719-1.5898 8.3086-4.7695 11.488zm8.9414 8.9023c-5.6445 5.6445-13.039 8.4648-20.43 8.4648-7.3945 0-14.785-2.8203-20.43-8.4648-2.2656-2.3047-4.0938-4.8477-5.4453-7.5898-.63672-1.3125-1.1914-2.6641-1.6289-4.0156-1.6289.79688-3.2578 1.5508-4.9297 2.2266.67578 1.9883 1.5117 3.8945 2.543 5.7227 1.4688 2.6641 3.3789 5.168 5.6836 7.4727 6.6758 6.6758 15.461 10.016 24.207 10.016 8.7461 0 17.527-3.3398 24.207-10.016l5.1289 5.1289c-8.1094 8.1094-18.723 12.164-29.332 12.164-10.613 0-21.227-4.0547-29.293-12.164-2.7422-2.7422-5.0469-5.8047-6.875-9.1016-1.2305-2.1875-2.2656-4.4922-3.0586-6.7969-1.75.51562-3.457.99219-5.207 1.3906.91406 2.8203 2.1445 5.5664 3.6172 8.1875 2.0273 3.5781 4.6094 6.9961 7.7109 10.137 9.1406 9.1406 21.145 13.711 33.148 13.711 12.004 0 23.969-4.5703 33.109-13.711l5.1289 5.1289-5.1289-5.1289c9.1406-9.1406 13.711-21.145 13.711-33.148 0-12.004-4.5703-23.969-13.711-33.148-3.1016-3.1016-6.5195-5.6836-10.055-7.6719-2.625-1.5117-5.4062-2.7031-8.2266-3.6562-.39844 1.75-.875 3.4961-1.3906 5.207 2.3867.79688 4.6914 1.8281 6.875 3.0586 3.2188 1.8281 6.2812 4.0938 9.0234 6.875 8.1094 8.1094 12.164 18.723 12.164 29.332 0 10.613-4.0547 21.266-12.164 29.332l-5.1289-5.1289c6.7188-6.7188 10.055-15.461 10.055-24.207s-3.3789-17.527-10.055-24.207c-2.2656-2.2656-4.7695-4.1328-7.4727-5.6445-1.8672-1.0352-3.8164-1.9062-5.7617-2.582-.67578 1.668-1.4297 3.3398-2.2266 4.9688 1.3906.4375 2.7422.99219 4.0547 1.6289 2.7422 1.3516 5.3242 3.1797 7.5898 5.4453 5.6445 5.6445 8.4648 13.039 8.4648 20.43 0 7.3945-2.8203 14.785-8.4648 20.391zm17.848 17.848c-10.574 10.574-24.406 15.859-38.238 15.859s-27.664-5.2852-38.238-15.859h-.039063c-3.5391-3.5391-6.4805-7.4727-8.8633-11.727-.67578-1.1914-1.2734-2.3867-1.8672-3.5781-.71484 2.3438-1.5117 4.6523-2.4648 6.957 1.1133 1.9062 2.3867 3.8164 3.7773 5.6836 1.6289 2.2266 3.4961 4.3711 5.6055 6.4805 11.605 11.605 26.828 17.41 42.051 17.41 15.223 0 30.445-5.8047 42.051-17.41 11.605-11.605 17.41-26.828 17.41-42.051 0-15.223-5.8047-30.445-17.41-42.051-2.1055-2.1055-4.2539-3.9766-6.4805-5.6445-1.8281-1.3516-3.7344-2.625-5.6836-3.7773-2.3047.91406-4.6094 1.75-6.957 2.4648 1.2305.59766 2.4648 1.1914 3.6562 1.8672 4.2148 2.3867 8.1484 5.3242 11.645 8.8242 10.574 10.574 15.859 24.406 15.859 38.277 0 13.832-5.2852 27.703-15.859 38.277zm8.9414 8.9023c-13.039 13.039-30.09 19.555-47.18 19.555-17.051 0-34.145-6.5195-47.18-19.555-2.2656-2.2656-4.332-4.6914-6.2812-7.2734-.55469-.75391-1.1133-1.5117-1.6289-2.2656-.91406 1.7109-1.9492 3.418-2.9805 5.0859.83594 1.1133 1.7109 2.2266 2.625 3.3398 1.3125 1.5898 2.8203 3.2188 4.4922 4.8906 14.07 14.07 32.555 21.105 50.996 21.105s36.887-7.0352 50.996-21.105c14.07-14.07 21.105-32.555 21.105-50.996 0-18.441-7.0352-36.887-21.105-50.996-1.6289-1.6289-3.2578-3.1406-4.9297-4.4922-1.0742-.875-2.1875-1.75-3.3398-2.582-1.668 1.0742-3.3789 2.0664-5.0859 2.9805.75391.51562 1.5117 1.0742 2.2656 1.6289 2.582 1.9492 5.0078 4.0156 7.2734 6.2812 13.039 13.039 19.555 30.09 19.555 47.18s-6.5195 34.145-19.555 47.18zm-174.05-156.01c-3.4961-.39844-6.875-1.9492-9.5391-4.6523-3.1797-3.1797-4.7695-7.3516-4.7695-11.488 0-4.1328 1.5898-8.3086 4.7695-11.488l2.543 2.543-2.543-2.543c3.1797-3.1797 7.3125-4.7695 11.488-4.7695 4.1719 0 8.3086 1.5898 11.488 4.7695 2.6641 2.6641 4.2148 6.043 4.6523 9.5391 1.5898-1.1523 3.2188-2.2266 4.8906-3.2578-.35938-1.5117-.91406-3.0195-1.6289-4.4531-.99219-2.0273-2.3867-3.9336-4.0938-5.6445-4.2148-4.2148-9.7383-6.3203-15.301-6.3203-5.5234 0-11.09 2.1055-15.301 6.3203-4.2148 4.2148-6.3203 9.7383-6.3203 15.301 0 5.5234 2.1055 11.09 6.3203 15.301 1.7109 1.7109 3.6562 3.0586 5.6836 4.0938 1.4297.71484 2.9023 1.2305 4.4102 1.6289.99219-1.668 2.1055-3.3008 3.2578-4.8906zm-4.4531-22.496c-1.75 1.75-2.625 4.0547-2.625 6.3594s.875 4.6094 2.625 6.3594 4.0547 2.625 6.3594 2.625 4.6094-.875 6.3594-2.625 2.625-4.0547 2.625-6.3594-.875-4.6094-2.625-6.3594-4.0547-2.625-6.3594-2.625-4.6094.875-6.3594 2.625zm-2.3867 33.863c-1.3906-.4375-2.7422-.99219-4.0547-1.6289-2.7422-1.3516-5.3242-3.1797-7.5898-5.4453-5.6445-5.6445-8.4648-13.039-8.4648-20.391 0-7.3945 2.8203-14.746 8.4648-20.391l2.543 2.543-2.543-2.543c5.6445-5.6445 13.039-8.4648 20.391-8.4648 7.3945 0 14.746 2.8203 20.391 8.4648 2.2656 2.2656 4.0938 4.8477 5.4453 7.5898.63672 1.3125 1.1914 2.6641 1.6289 4.0547 1.6289-.79688 3.3008-1.5508 4.9688-2.2266-.67578-1.9883-1.5117-3.8945-2.582-5.7617-1.5117-2.7031-3.3789-5.207-5.6445-7.4727-6.6758-6.6758-15.461-10.016-24.207-10.016s-17.527 3.3398-24.207 10.016l-5.1289-5.1289c8.1094-8.1094 18.723-12.164 29.332-12.164 10.613 0 21.227 4.0547 29.332 12.164 2.7422 2.7812 5.0469 5.8047 6.875 9.0234 1.2305 2.1875 2.2656 4.4922 3.0586 6.875 1.7109-.51562 3.457-.99219 5.207-1.3906-.95312-2.8633-2.1445-5.6055-3.6562-8.2656-2.0273-3.5781-4.5703-6.957-7.7109-10.055-9.1406-9.1406-21.145-13.711-33.148-13.711s-23.969 4.5703-33.109 13.711l-5.1289-5.1289c10.574-10.574 24.406-15.859 38.238-15.859s27.703 5.2852 38.277 15.859c3.5391 3.5391 6.4805 7.4336 8.8633 11.645.67578 1.1914 1.3125 2.3867 1.8672 3.6172.71484-2.3438 1.5117-4.6523 2.4648-6.957-1.1133-1.9492-2.3867-3.8555-3.7344-5.6445-1.6289-2.2266-3.5391-4.3711-5.6055-6.4805-11.645-11.645-26.871-17.449-42.051-17.449-15.223 0-30.445 5.8438-42.051 17.449l-5.1289-5.1289 5.0859 5.1289c-11.605 11.605-17.41 26.828-17.41 42.051 0 15.223 5.8047 30.445 17.41 42.051 2.0664 2.0664 4.2148 3.9336 6.4805 5.6055 1.8281 1.3516 3.7344 2.625 5.6445 3.7344 2.2656-.91406 4.6094-1.75 6.957-2.4648-1.1914-.55469-2.3867-1.1914-3.5781-1.8281-4.2148-2.3867-8.1875-5.3242-11.688-8.8633v-.039062c-10.574-10.574-15.859-24.406-15.859-38.238s5.2852-27.703 15.859-38.238l5.1289 5.1289c-9.1406 9.1406-13.711 21.145-13.711 33.148 0 12.004 4.5703 24.008 13.711 33.148 3.1406 3.1406 6.5195 5.6836 10.137 7.7109 2.625 1.4688 5.3672 2.7031 8.2266 3.6172.39844-1.75.875-3.4961 1.3906-5.207-2.3438-.79687-4.6094-1.8281-6.8359-3.0586-3.3008-1.8281-6.3594-4.1328-9.1016-6.875v-.039063c-8.1094-8.1094-12.164-18.723-12.164-29.332 0-10.613 4.0547-21.227 12.164-29.332l5.1289 5.1289c-6.6758 6.6758-10.016 15.461-10.016 24.207 0 8.7461 3.3398 17.527 10.016 24.207 2.3047 2.3047 4.8477 4.2148 7.5117 5.6836 1.8281 1.0352 3.7773 1.8672 5.7617 2.543.67578-1.668 1.4297-3.3008 2.2266-4.9297zm-28.895 27.586c-.75391-.51562-1.5117-1.0742-2.2656-1.6289-2.543-1.9062-4.9688-4.0156-7.2344-6.2812-13.039-13.039-19.555-30.09-19.555-47.18 0-17.051 6.5195-34.145 19.555-47.141v-.039063c13.039-13.039 30.09-19.555 47.18-19.555s34.145 6.5195 47.18 19.555c2.2656 2.2656 4.332 4.6914 6.2812 7.2734.55469.75391 1.0742 1.5117 1.6289 2.2656.91406-1.7109 1.9492-3.418 3.0195-5.0859-.83594-1.1523-1.7109-2.2656-2.582-3.3008-1.3516-1.5898-2.8203-3.2578-4.4922-4.9297-14.07-14.07-32.555-21.105-50.996-21.105s-36.926 7.0352-50.996 21.105c-14.07 14.07-21.105 32.555-21.105 50.996 0 18.441 7.0352 36.926 21.105 50.996 1.6289 1.6289 3.2578 3.1016 4.9297 4.4922 1.0742.875 2.1445 1.75 3.3008 2.582 1.668-1.0742 3.3789-2.0664 5.0859-3.0195zm100.12-103.98c1.9492-2.5039 4.0938-4.8906 6.3594-7.1953 9.3789-9.3789 20.508-15.938 32.355-19.637-11.844-3.6953-22.973-10.254-32.355-19.637-2.3047-2.3047-4.4102-4.6914-6.3594-7.1953-.47656.59766-.95312 1.1914-1.4297 1.75-1.6289 1.9492-3.2578 3.7773-4.9297 5.4062-9.3789 9.3789-20.508 15.938-32.355 19.637 11.844 3.6953 22.973 10.254 32.355 19.637 1.668 1.668 3.3008 3.4961 4.9297 5.4062.47656.59766.95313 1.1523 1.4297 1.75zm-16.098 109.43c.39844-3.4961 1.9492-6.875 4.6523-9.5391 2.7031-2.6641 6.043-4.2148 9.5391-4.6094-1.1523-1.5898-2.2266-3.2188-3.2578-4.8906-1.5117.35938-2.9805.91406-4.4102 1.5898-2.0273.99219-3.9766 2.3867-5.6836 4.0938-1.7109 1.75-3.1016 3.6562-4.0938 5.6836-.71484 1.4297-1.2305 2.9023-1.5898 4.4102 1.668 1.0352 3.3008 2.1055 4.8906 3.2578zm27.586-9.5391h.039063c3.1797 3.1797 4.7695 7.3125 4.7695 11.488 0 4.1328-1.5898 8.3086-4.7305 11.445v.039062c-3.1797 3.1797-7.3125 4.7305-11.488 4.7305-4.1328 0-8.3086-1.5898-11.445-4.7305h-.039062c-14.07-14.07-32.555-21.105-50.996-21.105s-36.926 7.0352-50.996 21.105c-14.07 14.07-21.105 32.555-21.105 50.996s7.0352 36.926 21.105 50.996c14.07 14.07 32.555 21.105 50.996 21.105s36.926-7.0352 50.996-21.105c5.4844-5.4453 9.8555-11.566 13.195-18.047 2.7031-5.2461 4.6914-10.773 6-16.414-1.8672.19922-3.7773.31641-5.6445.35938-1.3516 5.168-3.3398 10.215-5.9609 15.023-2.9805 5.5234-6.7969 10.691-11.445 15.301-13.039 13.039-30.129 19.555-47.18 19.555-17.09 0-34.145-6.5195-47.18-19.555-13.039-13.039-19.555-30.09-19.555-47.18 0-17.051 6.5195-34.145 19.555-47.18 13.039-13.039 30.09-19.555 47.18-19.555 17.051 0 34.145 6.5195 47.18 19.555l-2.543 2.543 2.543-2.543c4.2148 4.2148 9.7383 6.3203 15.301 6.3203 5.5234 0 11.051-2.1055 15.301-6.3203 4.2148-4.2148 6.3203-9.7383 6.3203-15.301 0-5.5234-2.1055-11.051-6.3203-15.301-13.039-13.039-19.555-30.09-19.555-47.18s6.5195-34.145 19.555-47.18c13.039-13.039 30.09-19.555 47.18-19.555s34.145 6.5195 47.18 19.555l-5.1289 5.1289c-11.605-11.645-26.828-17.449-42.051-17.449-15.223 0-30.445 5.8047-42.051 17.41s-17.41 26.828-17.41 42.051 5.8047 30.445 17.41 42.051c5.6445 5.6445 8.4648 13.039 8.4648 20.391 0 7.3945-2.8203 14.785-8.4648 20.43s-13.039 8.4648-20.391 8.4648c-7.3945 0-14.785-2.8203-20.391-8.4648-11.605-11.605-26.828-17.41-42.094-17.41-15.223 0-30.445 5.8047-42.051 17.41s-17.41 26.828-17.41 42.051c0 15.223 5.8047 30.445 17.41 42.051 11.605 11.605 26.828 17.41 42.051 17.41s30.445-5.8047 42.094-17.41c4.1328-4.1719 7.5508-8.7461 10.215-13.633 2.0273-3.7773 3.6562-7.7109 4.8086-11.727-1.8281-.12109-3.6562-.31641-5.4453-.55469-1.1133 3.5781-2.625 7.0742-4.4922 10.414-2.3867 4.2148-5.3242 8.1875-8.8633 11.727h-.039062c-10.574 10.574-24.406 15.859-38.238 15.859s-27.703-5.2852-38.238-15.859l5.1289-5.1289c9.1406 9.1406 21.145 13.711 33.148 13.711s24.008-4.5703 33.148-13.711c3.1406-3.1406 5.6836-6.5586 7.7109-10.137 1.4688-2.625 2.7031-5.3672 3.6172-8.1875-1.75-.39844-3.4961-.875-5.207-1.3906-.79688 2.3438-1.8281 4.6094-3.0586 6.7969-1.8281 3.3008-4.1328 6.3594-6.875 9.1016-8.1094 8.1094-18.723 12.121-29.332 12.121-10.613 0-21.227-4.0547-29.332-12.121l5.1289-5.1289c6.6758 6.6758 15.461 10.016 24.207 10.016 8.7461 0 17.527-3.3398 24.207-10.016 2.3047-2.3047 4.2148-4.8477 5.6836-7.5117 1.0352-1.8281 1.8672-3.7773 2.543-5.7227-1.668-.67578-3.3008-1.4297-4.9297-2.2266-.4375 1.3906-.99219 2.7031-1.6289 4.0156-1.3516 2.7422-3.1797 5.3242-5.4844 7.5898-5.6445 5.6445-12.996 8.4648-20.391 8.4648-7.3945 0-14.785-2.8203-20.43-8.4648-5.6445-5.6445-8.4648-12.996-8.4648-20.391 0-7.3945 2.8203-14.746 8.4648-20.391 5.6445-5.6445 13.039-8.4648 20.43-8.4648 7.3945 0 14.785 2.8203 20.43 8.4648 11.605 11.605 26.828 17.41 42.051 17.41s30.445-5.8047 42.051-17.41c11.605-11.645 17.41-26.871 17.41-42.051 0-15.223-5.8047-30.445-17.41-42.051l5.1289-5.1289c13.039 13.039 19.555 30.09 19.555 47.18s-6.5195 34.145-19.555 47.18c-13.039 13.039-30.09 19.555-47.18 19.555-17.051 0-34.145-6.5195-47.18-19.555l2.543-2.582-2.582 2.582c-4.2148-4.2148-9.7383-6.3203-15.301-6.3203-5.5234 0-11.051 2.1055-15.301 6.3203-4.2148 4.2148-6.3203 9.7383-6.3203 15.301 0 5.5234 2.1055 11.051 6.3203 15.262 4.2148 4.2148 9.7383 6.3203 15.301 6.3203 5.5234 0 11.051-2.1055 15.301-6.3203 1.7109-1.7109 3.1016-3.6172 4.0938-5.6836.71484-1.4297 1.2305-2.9023 1.5898-4.4102-1.668-1.0352-3.3008-2.1055-4.8906-3.2578-.39844 3.4961-1.9492 6.875-4.6523 9.5391-3.1797 3.1797-7.3125 4.7695-11.488 4.7695-4.1719 0-8.3086-1.5898-11.488-4.7695l2.543-2.582-2.543 2.543c-3.1797-3.1797-4.7695-7.3125-4.7695-11.488 0-4.1328 1.5898-8.3086 4.7695-11.445 3.1797-3.1797 7.3125-4.7695 11.488-4.7695 4.1719 0 8.3086 1.5898 11.488 4.7695 14.07 14.07 32.555 21.105 50.996 21.105s36.887-7.0352 50.996-21.105c14.07-14.07 21.105-32.512 21.105-50.996 0-18.441-7.0352-36.926-21.105-50.996-3.1797-3.1797-4.7695-7.3125-4.7695-11.488 0-4.1719 1.5898-8.3086 4.7695-11.488 3.1797-3.1797 7.3125-4.7695 11.488-4.7695 4.1719 0 8.3086 1.5898 11.488 4.7695 3.1797 3.1797 4.7695 7.3125 4.7695 11.488 0 4.1719-1.5898 8.3086-4.7695 11.488-2.6641 2.6641-6.043 4.2148-9.5391 4.6523 1.1523 1.5898 2.2266 3.2188 3.2578 4.8906 1.5117-.35938 2.9805-.91406 4.4102-1.6289 2.0273-.99219 3.9766-2.3867 5.6836-4.0938 4.2148-4.2148 6.3203-9.7383 6.3203-15.301 0-5.5234-2.1055-11.09-6.3203-15.301-4.2148-4.2148-9.7383-6.3203-15.301-6.3203-5.5234 0-11.09 2.1055-15.301 6.3203-4.2148 4.2148-6.3203 9.7773-6.3203 15.301 0 5.5234 2.1055 11.051 6.3203 15.301l-5.1289 5.1289c-5.6445-5.6445-8.4648-13.039-8.4648-20.43 0-7.3945 2.8203-14.785 8.4648-20.43 5.6445-5.6445 13.039-8.4648 20.391-8.4648 7.3945 0 14.746 2.8203 20.391 8.4648l-2.543 2.543 2.582-2.543c5.6445 5.6445 8.4648 13.039 8.4648 20.391 0 7.3945-2.8203 14.746-8.4648 20.391-2.2656 2.2656-4.8477 4.0938-7.6328 5.4844-1.3125.63672-2.6641 1.1914-4.0156 1.6289.79687 1.6289 1.5508 3.2578 2.2266 4.9297 1.9883-.67578 3.8945-1.5117 5.7227-2.543 2.6641-1.4688 5.168-3.3789 7.4727-5.6836 6.6758-6.6758 10.016-15.461 10.016-24.207 0-8.7461-3.3398-17.488-10.016-24.207l5.1289-5.1289c8.1094 8.1094 12.121 18.723 12.121 29.332 0 10.613-4.0547 21.227-12.121 29.332-2.7422 2.7422-5.8047 5.0469-9.1016 6.875-2.1875 1.2305-4.4922 2.2656-6.7969 3.0586.51562 1.75.99219 3.457 1.3906 5.207 2.8203-.91406 5.5664-2.1445 8.1875-3.6172 3.5781-2.0273 6.9961-4.6094 10.137-7.7109 9.1406-9.1406 13.711-21.145 13.711-33.148s-4.5703-23.969-13.711-33.109l5.1289-5.1289c10.574 10.574 15.859 24.406 15.859 38.238s-5.2852 27.664-15.859 38.238c-3.5391 3.5391-7.4727 6.4805-11.688 8.8633-3.3398 1.8672-6.8359 3.3789-10.414 4.4922.23828 1.8281.4375 3.6562.55469 5.4844 4.0547-1.1914 7.9883-2.7812 11.766-4.8477 4.8906-2.6641 9.4609-6.082 13.633-10.215v-.039062c11.605-11.605 17.41-26.828 17.41-42.051 0-15.223-5.8047-30.445-17.41-42.051l5.0859-5.1289v.039062c13.039 13.039 19.555 30.09 19.555 47.141s-6.5195 34.145-19.555 47.141c-4.6523 4.6094-9.8164 8.4648-15.301 11.445-4.8086 2.625-9.8555 4.6094-15.062 5.9609-.039062 1.8672-.16016 3.7773-.35938 5.6445 5.6445-1.3125 11.168-3.3398 16.414-6.043 6.4805-3.3398 12.602-7.7109 18.047-13.195 14.07-14.07 21.105-32.555 21.105-50.996 0-18.441-7.0352-36.887-21.105-50.996l5.1289-5.1289-5.1289 5.1289c-14.07-14.07-32.555-21.105-50.996-21.105-18.441 0-36.926 7.0352-50.996 21.105s-21.105 32.555-21.105 50.996c0 18.441 7.0352 36.887 21.105 50.996zm-2.582 2.625-2.5039 2.5039c-1.75-1.75-4.0547-2.625-6.3594-2.625-2.3047 0-4.6094.875-6.3594 2.625s-2.625 4.0547-2.625 6.3594c0 2.1875.79688 4.3711 2.3438 6.082l.27734.27734c1.75 1.75 4.0547 2.625 6.3594 2.625 2.3047 0 4.6094-.875 6.3594-2.625s2.625-4.0547 2.625-6.3594-.875-4.6094-2.625-6.3594l3.4961-3.5391-.99219.99219zm-36.367.078125c.4375-1.3516.95313-2.7031 1.6289-4.0156 1.3516-2.7812 3.1797-5.3242 5.4453-7.6328 2.2656-2.2656 4.8477-4.0938 7.5898-5.4453 1.3125-.63672 2.6641-1.1914 4.0156-1.6289-.79688-1.6289-1.5508-3.3008-2.2266-4.9297-1.9492.67578-3.8945 1.5117-5.7227 2.543-2.6641 1.5117-5.207 3.418-7.5117 5.6836-2.3047 2.3047-4.2148 4.8086-5.6836 7.5117-1.0352 1.8281-1.8672 3.7344-2.543 5.7227 1.668.67578 3.3398 1.4297 4.9297 2.2266zm-11.766-4.6523c.79687-2.3438 1.8281-4.6094 3.0586-6.8359 1.8281-3.2578 4.1328-6.3203 6.875-9.1016 2.7422-2.7422 5.8438-5.0469 9.1016-6.875 2.1875-1.2305 4.4922-2.2656 6.8359-3.0586-.51562-1.7109-.99219-3.457-1.3906-5.207-2.8203.91406-5.5664 2.1445-8.1875 3.6172-3.5781 2.0273-6.9961 4.6094-10.137 7.75-3.1016 3.1016-5.6836 6.5195-7.7109 10.098-1.4688 2.625-2.7031 5.3672-3.6172 8.1875 1.75.39844 3.4961.875 5.207 1.3906zm-12.363-2.7031c1.1133-3.5781 2.625-7.0742 4.4922-10.414 2.3867-4.2148 5.3242-8.1484 8.8633-11.688 3.5391-3.5391 7.4727-6.5195 11.727-8.9023 3.3398-1.8672 6.8359-3.3789 10.414-4.4922-.23828-1.8281-.4375-3.6562-.55469-5.4844-4.0547 1.1914-7.9883 2.7812-11.766 4.8477-4.8477 2.6641-9.4609 6.043-13.633 10.215s-7.5898 8.7461-10.215 13.633c-2.0273 3.7773-3.6562 7.7109-4.8086 11.727 1.8281.12109 3.6562.31641 5.4844.55469zm-12.918-.71484c1.3516-5.168 3.3398-10.215 5.9609-15.023 3.0195-5.5234 6.7969-10.691 11.445-15.301 4.6094-4.6094 9.7773-8.4258 15.301-11.445 4.8086-2.625 9.8555-4.6094 15.023-5.9609.039063-1.8672.16016-3.7773.35938-5.6445-5.6445 1.3125-11.168 3.3398-16.414 6-6.4805 3.3398-12.602 7.7109-18.047 13.195-5.4844 5.4453-9.8555 11.566-13.195 18.047-2.7031 5.2461-4.6914 10.773-6.043 16.414 1.8672-.16016 3.7773-.27734 5.6445-.35938zm120.67-39.27c1.75 1.75 4.0547 2.625 6.3594 2.625 2.3047 0 4.6094-.875 6.3594-2.625s2.625-4.0547 2.625-6.3594-.875-4.6094-2.625-6.3594-4.0547-2.625-6.3594-2.625c-2.3047 0-4.6094.875-6.3594 2.625s-2.625 4.0547-2.625 6.3594.875 4.6094 2.625 6.3594zm-22.973 22.973c-8.1094-8.1094-12.164-18.723-12.164-29.332 0-10.613 4.0547-21.227 12.164-29.332h.039063c8.1094-8.1094 18.723-12.164 29.293-12.164 10.613 0 21.227 4.0547 29.332 12.164l-5.1289 5.1289c-6.6758-6.6758-15.461-10.016-24.207-10.016-8.7461 0-17.527 3.3398-24.207 10.016-6.6758 6.6758-10.055 15.461-10.055 24.207 0 8.7852 3.3789 17.527 10.016 24.207l-5.0859 5.1289zm-8.9414 8.9023c-10.574-10.574-15.859-24.406-15.859-38.238s5.2852-27.703 15.859-38.238c10.574-10.574 24.406-15.859 38.238-15.859s27.703 5.2852 38.277 15.859l-5.1289 5.1289c-9.1406-9.1406-21.145-13.711-33.148-13.711-12.004 0-24.008 4.5703-33.148 13.711s-13.711 21.145-13.711 33.148 4.5703 24.008 13.711 33.148c8.1094 8.1094 12.164 18.723 12.164 29.332 0 10.613-4.0547 21.227-12.164 29.332-8.1094 8.1094-18.723 12.164-29.332 12.164-10.613 0-21.227-4.0547-29.332-12.164-9.1406-9.1406-21.145-13.711-33.148-13.711s-23.969 4.5703-33.109 13.711-13.711 21.145-13.711 33.148 4.5703 23.969 13.711 33.148l-5.1289 5.1289c-10.574-10.574-15.859-24.406-15.859-38.277 0-13.832 5.2852-27.703 15.859-38.238 10.574-10.574 24.406-15.859 38.277-15.859 13.832 0 27.703 5.2852 38.277 15.859l-5.1289 5.1289 5.1289-5.1289c6.6758 6.6758 15.461 10.016 24.207 10.016 8.7461 0 17.527-3.3398 24.207-10.016 6.6758-6.6758 10.016-15.461 10.016-24.207 0-8.7461-3.3398-17.527-10.016-24.207l3.3008-3.3008-3.3008 3.3008zm-93.047 93.047c1.75 1.75 4.0547 2.625 6.3594 2.625s4.6094-.875 6.3594-2.625 2.625-4.0547 2.625-6.3594-.875-4.6094-2.625-6.3594-4.0547-2.625-6.3594-2.625-4.6094.875-6.3594 2.625-2.625 4.0547-2.625 6.3594.875 4.6094 2.625 6.3594zm107.08-107.08c10.574 10.574 15.859 24.406 15.859 38.277 0 13.832-5.2852 27.703-15.859 38.277-10.574 10.574-24.406 15.859-38.277 15.859-13.832 0-27.664-5.2852-38.238-15.859l2.543-2.543-2.543 2.543c-6.6758-6.6758-15.461-10.016-24.207-10.016s-17.527 3.3398-24.207 10.016c-6.6758 6.6758-10.016 15.461-10.016 24.207s3.3398 17.527 10.016 24.207l-5.0859 5.1289c-8.1094-8.1094-12.164-18.723-12.164-29.332 0-10.613 4.0547-21.227 12.164-29.332 8.1094-8.1094 18.723-12.164 29.332-12.164 10.613 0 21.227 4.0547 29.332 12.164 9.1406 9.1406 21.145 13.711 33.148 13.711s24.008-4.5703 33.148-13.711c9.1406-9.1406 13.711-21.145 13.711-33.148 0-12.004-4.5703-23.969-13.711-33.148l5.1289-5.1289zm17.848-294.25c1.75 1.75 4.0547 2.625 6.3594 2.625 2.3047 0 4.6094-.875 6.3594-2.625s2.625-4.0547 2.625-6.3594-.875-4.6094-2.625-6.3594-4.0547-2.625-6.3594-2.625c-2.3047 0-4.6094.875-6.3594 2.625s-2.625 4.0547-2.625 6.3594.875 4.6094 2.625 6.3594zm15.301-15.301 2.543-2.582c3.1797 3.1797 4.7695 7.3125 4.7695 11.488 0 4.1719-1.5898 8.3086-4.7695 11.488-2.6641 2.6641-6.043 4.2148-9.5391 4.6523 1.1523 1.5898 2.2266 3.2188 3.2578 4.8906 1.5117-.35938 2.9805-.91406 4.4102-1.6289 2.0273-.99219 3.9766-2.3867 5.6836-4.0938 4.2148-4.2148 6.3203-9.7383 6.3203-15.301 0-5.5234-2.1055-11.051-6.3203-15.262-4.2148-4.2148-9.7383-6.3203-15.301-6.3203-5.5234 0-11.051 2.1055-15.301 6.3203-1.7109 1.7109-3.0586 3.6172-4.0938 5.6445-.71484 1.4297-1.2305 2.9023-1.6289 4.4102 1.668 1.0352 3.3008 2.1055 4.8477 3.2578.4375-3.4961 1.9883-6.875 4.6523-9.5391 3.1797-3.1797 7.3516-4.7305 11.488-4.7305 4.1328 0 8.3086 1.5898 11.488 4.7305l-2.543 2.582zm11.488-11.488c5.6445 5.6445 8.4648 12.996 8.4648 20.391 0 7.3945-2.8203 14.746-8.4648 20.391-2.2656 2.2656-4.8477 4.0938-7.6328 5.4844-1.3125.63672-2.6641 1.1914-4.0156 1.6289.79688 1.6289 1.5508 3.2578 2.2266 4.9297 1.9883-.67578 3.8945-1.5117 5.7227-2.543 2.6641-1.4688 5.168-3.3789 7.4727-5.6836 6.6758-6.6758 10.016-15.461 10.016-24.207 0-8.7461-3.3398-17.527-10.016-24.207l5.1289-5.1289c8.1094 8.1094 12.164 18.723 12.164 29.332 0 10.613-4.0547 21.227-12.164 29.332-2.7422 2.7422-5.8047 5.0469-9.1016 6.875-2.1875 1.2305-4.4922 2.2656-6.7969 3.0586.51562 1.7109.99219 3.457 1.3906 5.207 2.8203-.91406 5.5664-2.1445 8.1875-3.6172 3.6172-2.0664 7.0352-4.6094 10.137-7.7109 9.1406-9.1406 13.711-21.145 13.711-33.148s-4.5703-23.969-13.711-33.109l5.1289-5.1289c10.574 10.574 15.859 24.406 15.859 38.277 0 13.832-5.2852 27.664-15.859 38.238-3.5391 3.5391-7.5117 6.5195-11.727 8.9023-1.1523.67578-2.3867 1.2734-3.5781 1.8281 2.3438.71484 4.6523 1.5117 6.957 2.4648 1.9492-1.1523 3.8555-2.3867 5.6836-3.7773 2.2266-1.6289 4.3711-3.5391 6.4805-5.6445 11.605-11.605 17.41-26.828 17.41-42.051s-5.8047-30.445-17.41-42.051l5.1289-5.1289c12.996 12.996 19.516 30.09 19.516 47.18 0 17.051-6.5195 34.145-19.516 47.18-2.2656 2.2656-4.6914 4.332-7.2734 6.2812-.75391.55469-1.5117 1.1133-2.2656 1.6289 1.75.91406 3.418 1.9492 5.0859 2.9805 1.1523-.83594 2.2656-1.7109 3.3398-2.582 1.668-1.3906 3.3008-2.9023 4.9297-4.4922 14.07-14.07 21.105-32.555 21.105-50.996s-7.0352-36.887-21.105-50.996l5.1289-5.1289-5.1289 5.1289c-14.07-14.07-32.555-21.105-50.996-21.105s-36.926 7.0352-50.996 21.105c-1.668 1.668-3.1797 3.3008-4.4922 4.8906-.91406 1.1133-1.7891 2.2266-2.625 3.3398 1.0742 1.668 2.0664 3.3789 2.9805 5.0859.51562-.75391 1.0742-1.5117 1.6289-2.2656 1.9062-2.543 4.0156-4.9688 6.2812-7.2734 13.039-13.039 30.09-19.555 47.18-19.555 17.051 0 34.145 6.5195 47.18 19.555l-5.1289 5.1289c-11.605-11.605-26.828-17.41-42.051-17.41-15.223 0-30.445 5.8047-42.051 17.41-2.0664 2.0664-3.9336 4.2539-5.6055 6.4805-1.3906 1.8672-2.6641 3.7773-3.7773 5.6836.91406 2.2656 1.75 4.6094 2.4648 6.957.55469-1.2305 1.1914-2.4648 1.8672-3.6562 2.3867-4.2148 5.3242-8.1484 8.8633-11.645h.039062c10.574-10.574 24.406-15.859 38.238-15.859s27.703 5.2852 38.238 15.859l-5.1289 5.1289c-9.1406-9.1406-21.145-13.711-33.148-13.711-12.004 0-24.008 4.5703-33.148 13.711-3.1016 3.1016-5.6836 6.5195-7.7109 10.055-1.4688 2.625-2.7031 5.4062-3.6562 8.2266 1.75.39844 3.4961.875 5.2461 1.3906.79688-2.3867 1.8281-4.6523 3.0586-6.875 1.8281-3.2578 4.0938-6.3203 6.875-9.0625 8.1094-8.1094 18.723-12.164 29.293-12.164 10.613 0 21.227 4.0547 29.332 12.164l-5.1289 5.1289c-6.6758-6.6758-15.461-10.016-24.207-10.016s-17.527 3.3398-24.207 10.016c-2.3047 2.3047-4.1719 4.8086-5.6836 7.4727-1.0352 1.8672-1.9062 3.7773-2.582 5.7617 1.668.67578 3.3398 1.4297 4.9688 2.2266.4375-1.3906.99219-2.7422 1.6289-4.0547 1.3516-2.7422 3.1797-5.2852 5.4453-7.5898 5.6445-5.6445 12.996-8.4648 20.391-8.4648 7.3945 0 14.785 2.8203 20.43 8.4648zm-133.87 133.87.35938.35938c5.3672 5.2852 11.367 9.5781 17.688 12.84 5.2461 2.7031 10.773 4.6914 16.414 6.043-.16016-1.8672-.27734-3.7773-.35938-5.6445-5.168-1.3516-10.215-3.3398-15.023-5.9609-5.5234-3.0195-10.691-6.8359-15.301-11.445s-8.4258-9.7773-11.445-15.301c-2.625-4.8086-4.6094-9.8555-5.9609-15.023-1.8672-.039063-3.7773-.16016-5.6445-.35938 1.3125 5.6445 3.3398 11.168 6.043 16.414 3.2578 6.3594 7.5508 12.32 12.84 17.688zm4.6523 13.434c-.39844 3.4961-1.9883 6.875-4.6523 9.5391-3.1797 3.1797-7.3516 4.7695-11.488 4.7695-4.1328 0-8.3086-1.5898-11.488-4.7695l2.543-2.543-2.543 2.543c-3.1797-3.1797-4.7695-7.3125-4.7695-11.488 0-4.1719 1.5898-8.3086 4.7695-11.488 2.6641-2.7031 6.043-4.2539 9.5391-4.6523-1.1523-1.5898-2.2266-3.2188-3.2578-4.8906-1.5117.35938-3.0195.91406-4.4531 1.6289-2.0273.99219-3.9336 2.3867-5.6445 4.0938-4.2148 4.2148-6.3203 9.7383-6.3203 15.301 0 5.5234 2.1055 11.051 6.3203 15.262 4.2148 4.2148 9.7383 6.3203 15.301 6.3203 5.5234 0 11.051-2.1055 15.301-6.3203 1.7109-1.7109 3.1016-3.6172 4.0938-5.6836.71484-1.4297 1.2305-2.9023 1.6289-4.4102-1.668-.99219-3.3008-2.1055-4.8906-3.2578zm-22.496 4.4531c1.75 1.75 4.0547 2.625 6.3594 2.625 2.3047 0 4.6094-.875 6.3594-2.625s2.625-4.0547 2.625-6.3594c0-2.3047-.875-4.6094-2.625-6.3594s-4.0547-2.625-6.3594-2.625c-2.3047 0-4.6094.875-6.3594 2.625s-2.625 4.0547-2.625 6.3594c0 2.3047.875 4.6094 2.625 6.3594zm33.863 2.3867c-.4375 1.3906-.99219 2.7422-1.6289 4.0547-1.3516 2.7422-3.1797 5.3242-5.4453 7.5898-5.6445 5.6445-12.996 8.4648-20.391 8.4648s-14.785-2.8203-20.43-8.4648-8.4648-12.996-8.4648-20.391c0-7.3945 2.8203-14.746 8.4648-20.391 2.2656-2.2656 4.8477-4.0938 7.5898-5.4453 1.3125-.63672 2.6641-1.1914 4.0547-1.6289-.79687-1.6289-1.5508-3.3008-2.2266-4.9688-1.9492.67578-3.8945 1.5117-5.7617 2.582-2.7031 1.5117-5.207 3.3789-7.4727 5.6445-6.6758 6.6758-10.016 15.461-10.016 24.207s3.3398 17.527 10.016 24.207l-5.1289 5.1289c-8.1094-8.1094-12.164-18.723-12.164-29.332 0-10.613 4.0547-21.227 12.164-29.332 2.7812-2.7422 5.8047-5.0469 9.0234-6.875 2.1875-1.2305 4.4922-2.2656 6.875-3.0586-.51562-1.75-.99219-3.457-1.3906-5.207-2.8203.95312-5.6055 2.1445-8.2266 3.6562-3.6172 2.0273-6.9961 4.5703-10.098 7.6719-9.1406 9.1406-13.711 21.145-13.711 33.148s4.5703 23.969 13.711 33.109l-5.1289 5.1289c-10.574-10.574-15.859-24.406-15.859-38.238s5.2852-27.664 15.859-38.238v-.039063c3.5391-3.5391 7.4727-6.4805 11.645-8.8242 1.1914-.67578 2.3867-1.3125 3.6172-1.8672-2.3438-.71484-4.6523-1.5117-6.957-2.4648-1.9492 1.1523-3.8555 2.3867-5.6445 3.7344-2.1875 1.6289-4.3711 3.5391-6.4805 5.6055-11.605 11.605-17.41 26.828-17.41 42.051 0 15.223 5.8047 30.445 17.41 42.051l-5.1289 5.1289 5.1289-5.1289c11.605 11.605 26.828 17.41 42.051 17.41s30.445-5.8047 42.094-17.41c2.1055-2.1055 3.9766-4.2539 5.6055-6.4805 1.3516-1.8281 2.625-3.7344 3.7344-5.6445-.91406-2.2656-1.75-4.6094-2.4648-6.957-.55469 1.1914-1.1914 2.3867-1.8281 3.5781-2.3438 4.2148-5.3242 8.1484-8.8633 11.727-10.574 10.574-24.406 15.859-38.238 15.859s-27.703-5.2852-38.238-15.859l5.1289-5.1289c9.1406 9.1406 21.145 13.711 33.148 13.711s24.008-4.5703 33.148-13.711c3.1016-3.1016 5.6445-6.5195 7.7109-10.137 1.5117-2.625 2.7031-5.3672 3.6562-8.2266-1.75-.39844-3.4961-.875-5.207-1.3906-.79688 2.3438-1.8281 4.6094-3.0586 6.8359-1.8281 3.3008-4.1328 6.3594-6.875 9.1016-8.1094 8.1094-18.723 12.164-29.332 12.164-10.613 0-21.227-4.0547-29.332-12.164l5.1289-5.1289c6.6758 6.6758 15.461 10.016 24.207 10.016s17.527-3.3398 24.207-10.016c2.3047-2.3047 4.2148-4.8477 5.6836-7.5117 1.0352-1.8281 1.8672-3.7773 2.543-5.7617-1.668-.67578-3.3008-1.4297-4.9297-2.2266zm27.586 28.895c-.51562.75391-1.0742 1.5117-1.6289 2.2656-1.9492 2.582-4.0156 5.0078-6.2812 7.2734-13.039 13.039-30.129 19.555-47.18 19.555-17.09 0-34.145-6.5195-47.18-19.555-13.039-13.039-19.555-30.09-19.555-47.18 0-17.051 6.5195-34.145 19.555-47.18 2.2656-2.2656 4.6914-4.332 7.2734-6.2812.75391-.55469 1.5117-1.0742 2.2656-1.6289-1.7109-.91406-3.418-1.9492-5.0859-3.0195-1.1523.83594-2.2656 1.7109-3.3398 2.582-1.5898 1.3516-3.2578 2.8203-4.8906 4.4922-14.07 14.07-21.105 32.555-21.105 50.996 0 18.441 7.0352 36.926 21.105 50.996s32.555 21.105 50.996 21.105c18.441 0 36.926-7.0352 50.996-21.105 1.668-1.668 3.1797-3.3008 4.4922-4.9297.91406-1.0742 1.7891-2.1875 2.582-3.3008-1.0742-1.668-2.0664-3.3789-3.0195-5.0859zm5.4453-84.027c-3.457-.39844-6.8359-1.9492-9.5-4.6094l-.039062-.039062c-2.6641-2.6641-4.2148-6.043-4.6094-9.5-1.5898 1.1523-3.2188 2.2266-4.8906 3.2578.35938 1.5117.91406 2.9805 1.5898 4.3711.99219 2.0273 2.3867 3.9766 4.0938 5.6836 1.7109 1.7109 3.6172 3.1016 5.6836 4.0938 1.4297.71484 2.9023 1.2305 4.4102 1.6289 1.0352-1.668 2.1055-3.3008 3.2578-4.8906zm-4.4102-22.457c-1.75 1.75-2.625 4.0547-2.625 6.3594 0 2.3047.875 4.6094 2.625 6.3594h.039063c1.75 1.75 4.0547 2.625 6.3594 2.625 2.1875 0 4.3711-.79688 6.082-2.3438l.27734-.27734c1.75-1.75 2.625-4.0547 2.625-6.3594s-.875-4.6094-2.625-6.3594h-.039063c-1.75-1.75-4.0547-2.625-6.3594-2.625-2.3047 0-4.6094.875-6.3594 2.625zm-2.4258 33.824c-1.3516-.4375-2.7031-.95312-4.0156-1.6289-2.7422-1.3516-5.3242-3.1797-7.5898-5.4844-2.2656-2.2656-4.0938-4.8477-5.4844-7.5898-.63672-1.3125-1.1914-2.6641-1.6289-4.0156-1.6289.79688-3.3008 1.5508-4.9297 2.2266.67578 1.9883 1.5117 3.8945 2.543 5.7227 1.5117 2.6641 3.418 5.207 5.6836 7.5117 2.3047 2.3047 4.8477 4.2148 7.5117 5.6836 1.8281 1.0352 3.7344 1.8672 5.7227 2.543.67578-1.668 1.4297-3.3398 2.2266-4.9297zm-4.6523 11.766c-2.3438-.79688-4.6094-1.7891-6.7969-3.0195-3.3008-1.8281-6.3594-4.1328-9.1016-6.875-2.7422-2.7422-5.0469-5.8438-6.875-9.1016-1.2305-2.1875-2.2266-4.4922-3.0586-6.8359-1.7109.51562-3.457.99219-5.207 1.3906.95312 2.8203 2.1445 5.5664 3.6172 8.1875 2.0273 3.6172 4.6094 7.0352 7.7109 10.098 3.1016 3.1016 6.5195 5.6445 10.137 7.7109 2.625 1.5117 5.3672 2.7031 8.1875 3.6562.39844-1.75.875-3.4961 1.3906-5.2461zm-2.7031 12.402c-3.5781-1.1133-7.0742-2.625-10.414-4.4922-4.1719-2.3438-8.1484-5.3242-11.688-8.8633-3.5781-3.5781-6.5195-7.5117-8.9023-11.727-1.8672-3.3398-3.3789-6.8359-4.4922-10.414-1.8281.23828-3.6562.4375-5.4844.55469 1.1914 4.0547 2.7812 7.9883 4.8477 11.727 2.6641 4.8477 6.043 9.4609 10.215 13.633 4.1719 4.1719 8.7461 7.5508 13.633 10.215 3.7773 2.0273 7.7109 3.6562 11.766 4.8477.12109-1.8281.31641-3.6562.55469-5.4844zm-39.984-107.75c1.75-1.75 2.625-4.0547 2.625-6.3594s-.875-4.6094-2.625-6.3594-4.0547-2.625-6.3594-2.625c-2.3047 0-4.6094.875-6.3594 2.625s-2.625 4.0547-2.625 6.3594.875 4.6094 2.625 6.3594 4.0547 2.625 6.3594 2.625c2.3047 0 4.6094-.875 6.3594-2.625zm-15.301-15.301-2.543-2.582c3.1797-3.1797 7.3125-4.7305 11.488-4.7305 4.1328 0 8.3086 1.5898 11.488 4.7305 2.7031 2.6641 4.2539 6.043 4.6523 9.5391 1.5898-1.1523 3.2188-2.2266 4.8906-3.2578-.35937-1.5117-.91406-2.9805-1.5898-4.4102-1.0352-2.0664-2.3867-3.9766-4.0938-5.6836-4.2539-4.2148-9.7773-6.3203-15.301-6.3203-5.5234 0-11.051 2.1055-15.301 6.3203-4.2148 4.2148-6.3203 9.7383-6.3203 15.262 0 5.5234 2.1055 11.09 6.3203 15.301 4.2148 4.2148 9.7773 6.3203 15.301 6.3203 5.5234 0 11.051-2.1055 15.301-6.3203l2.582 2.582-2.543-2.582c13.039-13.039 30.09-19.555 47.18-19.555 17.051 0 34.145 6.5195 47.18 19.555 13.039 13.039 19.555 30.09 19.555 47.18s-6.5195 34.145-19.555 47.18l-5.1289-5.1289 5.0859 5.1289c-4.2148 4.2148-6.3203 9.7383-6.3203 15.301 0 5.5234 2.1055 11.051 6.3203 15.262 4.2539 4.2148 9.7773 6.3594 15.301 6.3594 5.5234 0 11.051-2.1055 15.301-6.3203 4.2148-4.2148 6.3203-9.7383 6.3203-15.262 0-5.5234-2.1055-11.09-6.3203-15.301-1.75-1.7109-3.6562-3.1016-5.6836-4.0938-1.4297-.71484-2.9023-1.2305-4.4102-1.6289-1.0352 1.668-2.1055 3.3008-3.2578 4.8906 3.4961.39844 6.875 1.9883 9.5391 4.6523 3.1797 3.1797 4.7695 7.3125 4.7695 11.488 0 4.1719-1.5898 8.3086-4.7695 11.488l-2.543-2.543 2.543 2.543c-3.1797 3.1797-7.3125 4.7695-11.488 4.7695-4.1328 0-8.3086-1.5898-11.488-4.7695-3.1797-3.1797-4.7695-7.3125-4.7695-11.488 0-4.1719 1.5898-8.3086 4.7695-11.488l.35937-.31641c13.832-14.031 20.789-32.355 20.789-50.637 0-18.441-7.0352-36.926-21.105-50.996-14.07-14.07-32.512-21.105-50.996-21.105-18.441 0-36.926 7.0352-50.996 21.105-3.1797 3.1797-7.3125 4.7695-11.488 4.7695-4.1719 0-8.3086-1.5898-11.488-4.7695-3.1797-3.1797-4.7695-7.3516-4.7695-11.488 0-4.1328 1.5898-8.3086 4.7695-11.488l2.543 2.543zm-11.488-11.488c5.6445-5.6445 13.039-8.4648 20.43-8.4648 7.3945 0 14.785 2.8203 20.43 8.4648 2.2656 2.3047 4.0938 4.8477 5.4453 7.6328.63672 1.3125 1.1914 2.6641 1.6289 4.0156 1.6289-.79688 3.2578-1.5508 4.9297-2.2266-.67578-1.9883-1.5117-3.8945-2.543-5.7227-1.4688-2.6641-3.3789-5.168-5.6836-7.4727-6.6758-6.6758-15.461-10.016-24.207-10.016s-17.527 3.3398-24.207 10.016l-5.1289-5.1289c8.1094-8.1094 18.723-12.164 29.332-12.164 10.613 0 21.227 4.0547 29.332 12.121 2.7422 2.7422 5.0469 5.8047 6.875 9.1016 1.2305 2.1875 2.2656 4.4922 3.0586 6.7969 1.75-.51563 3.457-.99219 5.207-1.3906-.91406-2.8203-2.1445-5.5664-3.6172-8.1875-2.0273-3.5781-4.6094-6.9961-7.7109-10.137-9.1406-9.1406-21.145-13.711-33.148-13.711s-23.969 4.5703-33.109 13.711l-5.1289-5.1289c10.574-10.574 24.406-15.859 38.238-15.859s27.664 5.2852 38.238 15.859h.039063c3.5391 3.5391 6.4805 7.4727 8.8633 11.727 1.8672 3.3398 3.3789 6.8359 4.4922 10.414 1.8281-.23828 3.6562-.4375 5.4453-.55469-1.1523-4.0547-2.7812-7.9883-4.8086-11.727-2.6641-4.8477-6.043-9.4609-10.215-13.633-11.605-11.605-26.828-17.41-42.051-17.41s-30.445 5.8047-42.051 17.41l-5.1289-5.1289c13.039-13.039 30.09-19.555 47.18-19.555 17.051 0 34.145 6.5195 47.18 19.555 4.6094 4.6094 8.4258 9.7773 11.445 15.301 2.625 4.8086 4.6094 9.8555 5.9219 15.023 1.8672.039063 3.7773.16016 5.6445.35938-1.3125-5.6445-3.3398-11.168-6-16.414-3.3398-6.4805-7.7109-12.602-13.195-18.047-14.109-14.07-32.555-21.105-50.996-21.105s-36.926 7.0352-50.996 21.105c-14.07 14.07-21.105 32.512-21.105 50.996 0 18.441 7.0352 36.926 21.105 50.996 14.07 14.07 32.555 21.105 50.996 21.105s36.926-7.0352 50.996-21.105c3.1797-3.1797 7.3516-4.7305 11.488-4.7305 4.1328 0 8.3086 1.5898 11.445 4.7305l.039062.039062c3.1797 3.1797 4.7305 7.3125 4.7305 11.488 0 4.1328-1.5898 8.3086-4.7305 11.445v.039062c-14.07 14.07-21.105 32.555-21.105 50.996s7.0352 36.926 21.105 50.996c14.07 14.07 32.555 21.105 50.996 21.105s36.887-7.0352 50.996-21.105c14.07-14.07 21.105-32.555 21.105-50.996s-7.0352-36.887-21.105-50.996c-5.4844-5.4844-11.566-9.8555-18.047-13.195-5.2461-2.7031-10.773-4.6914-16.414-6.043.16016 1.8672.27734 3.7773.35938 5.6445 5.168 1.3516 10.215 3.3398 15.023 5.9609 5.5234 3.0195 10.691 6.8359 15.301 11.445 13.039 13.039 19.555 30.09 19.555 47.18 0 17.051-6.5195 34.145-19.555 47.18l-5.1289-5.1289 5.1289 5.1289c-13.039 13.039-30.09 19.555-47.18 19.555-17.051 0-34.145-6.5195-47.18-19.555-13.039-13.039-19.555-30.09-19.555-47.18 0-17.051 6.5195-34.145 19.555-47.18 4.2148-4.2148 6.3203-9.7773 6.3203-15.301s-2.1055-11.051-6.3203-15.301c-4.2148-4.2148-9.7383-6.3203-15.301-6.3203-5.5234 0-11.051 2.1055-15.301 6.3203l-2.543-2.543 2.543 2.543c-13.039 13.039-30.09 19.555-47.18 19.555s-34.145-6.5195-47.18-19.555c-13.039-13.039-19.555-30.09-19.555-47.18s6.5195-34.145 19.555-47.18l5.1289 5.1289c-11.645 11.605-17.449 26.828-17.449 42.051s5.8047 30.445 17.41 42.051c11.605 11.605 26.828 17.41 42.051 17.41s30.445-5.8047 42.094-17.41c5.6445-5.6445 12.996-8.4648 20.391-8.4648s14.785 2.8203 20.391 8.4648c5.6445 5.6445 8.4648 13.039 8.4648 20.43 0 7.3945-2.8203 14.746-8.4648 20.391-11.605 11.605-17.41 26.828-17.41 42.094 0 15.223 5.8047 30.445 17.41 42.051 11.605 11.605 26.828 17.41 42.051 17.41 15.223 0 30.445-5.8047 42.051-17.41s17.41-26.828 17.41-42.051-5.8047-30.445-17.41-42.051c-4.1719-4.1719-8.7852-7.5508-13.633-10.215-3.7773-2.0273-7.7109-3.6562-11.766-4.8477-.12109 1.8281-.31641 3.6562-.55469 5.4844 3.5781 1.1133 7.0742 2.625 10.414 4.4922 4.2148 2.3867 8.1875 5.3242 11.688 8.8633 10.574 10.574 15.859 24.406 15.859 38.238s-5.2852 27.703-15.859 38.238l-5.1289-5.1289c9.1406-9.1406 13.711-21.145 13.711-33.148 0-12.004-4.5703-24.008-13.711-33.148-3.1406-3.1406-6.5586-5.6836-10.137-7.7109-2.625-1.4688-5.3672-2.7031-8.1875-3.6172-.39844 1.75-.875 3.4961-1.3906 5.2461 2.3438.79688 4.6094 1.7891 6.7969 3.0195 3.3008 1.8281 6.3594 4.1328 9.1016 6.875 8.1094 8.1094 12.164 18.723 12.164 29.332 0 10.613-4.0547 21.227-12.164 29.332-8.1094 8.1094-18.723 12.164-29.332 12.164-10.613 0-21.227-4.0547-29.332-12.164-8.1094-8.1094-12.164-18.723-12.164-29.332 0-10.613 4.0547-21.227 12.164-29.332 9.1406-9.1406 13.711-21.145 13.711-33.148s-4.5703-23.969-13.711-33.109-21.145-13.711-33.148-13.711-24.008 4.5703-33.148 13.711l-5.1289-5.0859c10.574-10.574 24.406-15.859 38.238-15.859s27.703 5.2852 38.238 15.859c10.574 10.574 15.859 24.406 15.859 38.238s-5.2852 27.664-15.859 38.238c-6.6758 6.6758-10.016 15.461-10.016 24.207 0 8.7461 3.3398 17.527 10.016 24.207 6.6758 6.6758 15.461 10.016 24.207 10.016s17.527-3.3398 24.207-10.016l5.1289 5.1289-5.1289-5.1289c6.6758-6.6758 10.016-15.461 10.016-24.207 0-8.7461-3.3398-17.527-10.016-24.207-2.3047-2.3047-4.8086-4.2148-7.4727-5.6836-1.8281-1.0352-3.7773-1.8672-5.7227-2.543-.67578 1.668-1.4297 3.3008-2.2266 4.9297 1.3906.4375 2.7422.95312 4.0156 1.6289 2.7812 1.3516 5.3242 3.1797 7.6328 5.4453 5.6445 5.6445 8.4648 13.039 8.4648 20.43 0 7.3945-2.8203 14.785-8.4648 20.391-5.6445 5.6445-13.039 8.4648-20.43 8.4648-7.3945 0-14.785-2.8203-20.43-8.4648-5.6445-5.6445-8.4648-13.039-8.4648-20.391 0-7.3945 2.8203-14.746 8.4648-20.391 11.605-11.605 17.41-26.828 17.41-42.051 0-15.223-5.8047-30.445-17.41-42.051-11.605-11.605-26.828-17.41-42.051-17.41-15.223 0-30.445 5.8047-42.051 17.41-5.6445 5.6445-13.039 8.4648-20.43 8.4648-7.3945 0-14.785-2.8203-20.43-8.4648s-8.4648-13.039-8.4648-20.43c0-7.3945 2.8203-14.785 8.4648-20.391zm49.762 49.723c-8.1094 8.1094-18.723 12.164-29.332 12.164-10.613 0-21.227-4.0547-29.332-12.164-8.1094-8.1094-12.164-18.723-12.164-29.332 0-10.613 4.0547-21.227 12.164-29.332l5.1289 5.1289c-6.6758 6.6758-10.016 15.461-10.016 24.207s3.3398 17.527 10.016 24.207c6.6758 6.6758 15.461 10.016 24.207 10.016 8.7461 0 17.527-3.3398 24.207-10.016l5.1289 5.0859zm8.9023 8.9414c-10.574 10.574-24.406 15.859-38.238 15.859s-27.703-5.2852-38.238-15.859v-.039063c-10.574-10.574-15.859-24.406-15.859-38.238s5.2852-27.703 15.859-38.238l5.1289 5.1289c-9.1406 9.1406-13.711 21.145-13.711 33.148s4.5703 24.008 13.711 33.148 21.145 13.711 33.148 13.711c12.004 0 24.008-4.5703 33.148-13.711 8.1094-8.1094 18.723-12.164 29.332-12.164 10.613 0 21.227 4.0547 29.332 12.164 8.1094 8.1094 12.164 18.723 12.164 29.332 0 10.613-4.0547 21.227-12.164 29.332-9.1406 9.1406-13.711 21.145-13.711 33.148 0 12.004 4.5703 23.969 13.711 33.148 9.1406 9.1406 21.145 13.711 33.148 13.711s23.969-4.5703 33.109-13.711l5.1289 5.1289c-10.574 10.574-24.406 15.859-38.238 15.859s-27.664-5.2852-38.238-15.859-15.859-24.406-15.859-38.238 5.2852-27.664 15.859-38.238l3.6562 3.6562-3.6562-3.6562c6.7188-6.6758 10.055-15.461 10.055-24.207 0-8.7461-3.3789-17.527-10.055-24.207-6.6758-6.6758-15.461-10.016-24.207-10.016-8.7461 0-17.527 3.3398-24.207 10.016l-2.582-2.582 2.543 2.582zm80.328 80.328c-1.75 1.75-2.625 4.0547-2.625 6.3594s.875 4.6094 2.625 6.3594 4.0547 2.625 6.3594 2.625c2.3047 0 4.6094-.875 6.3594-2.625s2.625-4.0547 2.625-6.3594-.875-4.6094-2.625-6.3594-4.0547-2.625-6.3594-2.625c-2.3047 0-4.6094.875-6.3594 2.625z"/>
</svg>