<svg xmlns="http://www.w3.org/2000/svg" version="1.1" viewBox="-5.0 -10.0 110.0 110.0">
 <path d="m78.938 31.746c-0.09375-0.64453-0.44922-1.0703-1.0508-1.2969-0.1875-0.066407-0.41016-0.10156-0.62891-0.10156-0.4375 0-0.875 0.14453-1.2695 0.42188-5.2891 3.5547-8.6875 9.2188-9.3359 15.551-0.23828 2.1758 0.38281 4.2109 1.7461 5.7344 1.3633 1.5195 3.3125 2.3594 5.4844 2.3594 4.5742 0 8.707-3.7305 9.2109-8.3164 0.19141-1.957-0.85547-4.6445-1.9648-7.4883-0.89062-2.2617-1.8047-4.6055-2.1914-6.8633z"/>
 <path d="m84.195 89.148c0 0.57422-0.46484 1.043-1.043 1.043-0.57422 0-1.043-0.46484-1.043-1.043v-3.0312c-1.4648 0.22266-2.9805 0.47656-4.5273 0.73437-0.29688 0.050782-0.59375 0.097657-0.89062 0.14844v2.1523c0 0.57422-0.46484 1.043-1.043 1.043-0.57422 0-1.043-0.46484-1.043-1.043v-1.8086c-1.8281 0.29297-3.6367 0.55859-5.3867 0.75391v1.0547c0 0.57422-0.46484 1.043-1.043 1.043-0.57422 0-1.043-0.46484-1.043-1.043l0.007813-0.85938c-4.5391 0.34375-8.4688 0.011719-10.801-1.9609-1.4766-1.25-2.2227-3.0508-2.2227-5.3594 0-3.3281 1.2812-6.0781 3.0977-7.0469-0.875-3.1953-2.2109-5.2812-4.0664-6.3672-3.0352-1.7773-7.4023-0.78906-12.133 0.55859 0.90625 25.457 8.8359 25.473 20.773 25.492 1.8906 0.003906 3.8438 0.007813 5.8789 0.10938 5.9922 0.30078 11.453 1.2695 16.227 2.8867 1.207 0.40625 2.1484 0.36328 2.8711-0.12891 2.1758-1.4805 2.4492-6.8438 2.6133-10.047 0.019532-0.37109 0.039063-0.72656 0.058594-1.0586-1.6016 0.027344-3.3711 0.19922-5.2461 0.44922z"/>
 <path d="m93.078 54.965-3.2734-5.8125c-0.13281-0.23828-0.16797-0.51953-0.097657-0.78516 0.77734-2.8789 1.1758-5.7656 1.1758-8.5859 0-20.215-19.031-36.664-42.422-36.664-23.375 0-42.395 16.449-42.395 36.664 0 10.039 4.5742 19.383 12.883 26.305 5.4961 4.6953 12.742 2.582 19.758 0.53125 0.27344-0.082032 0.55078-0.16016 0.82422-0.23828 0.085938-0.039062 0.17969-0.066406 0.27734-0.082031 5.4141-1.5664 10.488-2.832 14.402-0.53906 2.3828 1.3945 4.0469 3.9492 5.0703 7.793h7.8672v-2.3555c0-0.57422 0.46484-1.043 1.043-1.043 0.57422 0 1.043 0.46484 1.043 1.043v2.3555h5.3867v-2.3555c0-0.57422 0.46484-1.043 1.043-1.043 0.57422 0 1.043 0.46484 1.043 1.043v2.3555h5.418v-2.3555c0-0.57422 0.46484-1.043 1.043-1.043 0.57422 0 1.043 0.46484 1.043 1.043v2.3555h2.9453c0.58984 0 1.0469-0.1875 1.4297-0.58984 0.42969-0.41016 0.62109-0.87891 0.60156-1.4297-0.066406-5 0.050781-5.3945 0.10156-5.5625 0.11719-0.32031 0.22656-0.60547 2.6914-3.0156 2.1172-2.1367 2.5703-5.3516 1.0977-7.9883zm-75.859-3.125c-0.15234 0.078125-0.31641 0.11328-0.47656 0.11328-0.37891 0-0.74219-0.20703-0.92969-0.56641-0.64062-1.2461-1.1602-2.4922-1.543-3.7031-0.17578-0.54688 0.12891-1.1328 0.67969-1.3086 0.54688-0.17578 1.1328 0.12891 1.3086 0.67969 0.34766 1.1016 0.82422 2.2383 1.4102 3.3828 0.26562 0.51172 0.0625 1.1367-0.44922 1.4023zm-0.48047-21.211c-1.3477 3.3711-1.9023 6.9414-1.6406 10.613 0.039063 0.57422-0.39062 1.0703-0.96484 1.1133-0.023437 0-0.050781 0.003906-0.074218 0.003906-0.54297 0-1-0.41797-1.0391-0.96875-0.28125-3.9883 0.31641-7.8672 1.7852-11.535 2.8008-6.9805 8.4688-12.43 15.559-14.945 0.54297-0.19141 1.1367 0.089844 1.332 0.63281 0.19141 0.54297-0.089843 1.1367-0.63281 1.332-6.5273 2.3164-11.75 7.3281-14.324 13.754zm37.746 14.473c-1.5273 1.8672-4.0273 2.7773-7.6523 2.7773-10.57 0-15.84 8.0586-15.895 8.1406-0.19922 0.3125-0.53516 0.48047-0.87891 0.48047-0.19141 0-0.38281-0.050781-0.55859-0.16406-0.48438-0.30859-0.62891-0.94922-0.32031-1.4336 0.23437-0.37109 5.9023-9.1055 17.652-9.1055 2.957 0 4.9336-0.65625 6.0391-2.0117 2.1797-2.668 1.043-8.2266-0.15625-14.113-0.84766-4.168-1.7266-8.4766-1.7266-12.656 0-0.57422 0.46484-1.043 1.043-1.043 0.57422 0 1.043 0.46484 1.043 1.043 0 3.9727 0.85547 8.1758 1.6875 12.242 1.3555 6.6562 2.5273 12.41-0.27734 15.844zm30.68 1.2188c-0.61719 5.6211-5.6797 10.18-11.285 10.18-2.7734 0-5.2734-1.0859-7.0352-3.0508-1.7656-1.9727-2.5703-4.5781-2.2695-7.3477 0.71094-6.9414 4.4375-13.16 10.227-17.051 1.1133-0.77734 2.5273-0.99609 3.7852-0.5625 1.3398 0.5 2.2031 1.5664 2.4062 2.9297 0.34766 2.0195 1.2227 4.2695 2.0742 6.4414 1.2031 3.082 2.3398 5.9922 2.0977 8.4609z"/>
</svg>
