<?xml version="1.0" encoding="UTF-8" standalone="no"?>
<!-- Created with Inkscape (http://www.inkscape.org/) -->

<svg
   width="600"
   height="500"
   id="svg2"
   version="1.1"
   inkscape:version="1.2.2 (b0a8486541, 2022-12-01)"
   sodipodi:docname="Crane_de_profil.svg"
   xmlns:inkscape="http://www.inkscape.org/namespaces/inkscape"
   xmlns:sodipodi="http://sodipodi.sourceforge.net/DTD/sodipodi-0.dtd"
   xmlns="http://www.w3.org/2000/svg"
   xmlns:svg="http://www.w3.org/2000/svg"
   xmlns:rdf="http://www.w3.org/1999/02/22-rdf-syntax-ns#"
   xmlns:cc="http://creativecommons.org/ns#"
   xmlns:dc="http://purl.org/dc/elements/1.1/">
  <defs
     id="defs4" />
  <sodipodi:namedview
     id="base"
     pagecolor="#ffffff"
     bordercolor="#666666"
     borderopacity="1.0"
     inkscape:pageopacity="0.0"
     inkscape:pageshadow="2"
     inkscape:zoom="11.687991"
     inkscape:cx="583.291"
     inkscape:cy="381.75936"
     inkscape:document-units="px"
     inkscape:current-layer="layer1"
     showgrid="false"
     inkscape:window-width="3840"
     inkscape:window-height="2074"
     inkscape:window-x="0"
     inkscape:window-y="49"
     inkscape:window-maximized="1"
     showguides="true"
     inkscape:guide-bbox="true"
     inkscape:snap-global="false"
     inkscape:showpageshadow="0"
     inkscape:pagecheckerboard="1"
     inkscape:deskcolor="#d1d1d1" />
  <metadata
     id="metadata7">
    <rdf:RDF>
      <cc:Work
         rdf:about="">
        <dc:format>image/svg+xml</dc:format>
        <dc:type
           rdf:resource="http://purl.org/dc/dcmitype/StillImage" />
        <dc:title />
      </cc:Work>
    </rdf:RDF>
  </metadata>
  <g
     inkscape:label="Calque 1"
     inkscape:groupmode="layer"
     id="layer1"
     style="fill:#fcef3c;stroke:#000000;stroke-width:3"
     transform="translate(-93.331497,-330.66737)">
    <path
       style="fill:#000000;stroke:none"
       d="m 528.49417,726.33807 c 0,0 15.62548,46.12038 15.87751,48.89265 0.25202,2.77226 122.11898,-39.7928 122.11898,-39.7928 -0.0528,-1.00548 2.28055,-3.54961 2.2372,-4.55423 -0.91079,-21.10748 0.0131,-42.04818 -7.6691,-63.77124 z"
       id="path2910"
       inkscape:connector-curvature="0"
       sodipodi:nodetypes="cccscc" />
    <g
       id="g2933">
      <path
         sodipodi:nodetypes="ccccccccccc"
         inkscape:connector-curvature="0"
         id="path2869"
         d="m 658.3069,663.71589 7.57505,20.56279 c -3.66189,3.48529 -1.90224,8.3861 -9.40366,8.85461 -1.7714,7.35351 -5.60333,8.11334 -8.78981,10.93862 -5.35512,3.94135 -9.93355,8.91827 -16.98642,10.59595 -7.722,5.65423 -15.44399,7.02365 -23.16599,8.48332 -6.24771,4.56185 -12.90259,8.43152 -22.18714,7.83076 -7.44637,2.08482 -14.68673,4.58165 -24.81378,1.30512 -9.3448,3.98619 -14.82627,1.12447 -20.86562,0.97885 l -4.56794,-23.16599 z" />
      <path
         sodipodi:nodetypes="cc"
         inkscape:connector-curvature="0"
         id="path2871"
         d="m 558.44767,712.19158 2.1918,19.7262" />
      <path
         sodipodi:nodetypes="cc"
         inkscape:connector-curvature="0"
         id="path2873"
         d="m 580.8271,704.80867 4.38361,25.72482" />
      <path
         sodipodi:nodetypes="cc"
         inkscape:connector-curvature="0"
         id="path2875"
         d="m 601.01474,697.54112 6.5754,24.22516" />
      <path
         sodipodi:nodetypes="cc"
         inkscape:connector-curvature="0"
         id="path2877"
         d="m 620.0488,690.38893 c 0.23071,0.46144 10.38221,23.53302 10.38221,23.53302" />
      <path
         sodipodi:nodetypes="cc"
         inkscape:connector-curvature="0"
         id="path2879"
         d="m 638.85214,678.9685 8.53648,24.22516" />
      <path
         sodipodi:nodetypes="cc"
         inkscape:connector-curvature="0"
         id="path2881"
         d="m 647.27326,673.31596 8.76721,19.49549" />
      <path
         inkscape:connector-curvature="0"
         id="path2908"
         d="m 656.77435,709.95652 4.03238,25.20239" />
    </g>
    <path
       d="m 658.36404,660.58237 c -4.59453,-9.84801 -10.23685,-20.75009 -20.88941,-28.26145 5.40873,-6.31694 3.67686,-20.35274 -10.42179,-23.18355 -5.44479,-18.86145 13.71631,-62.53442 0.49422,-80.94166 -11.39483,-7.63773 -22.4287,-6.32005 -35.99167,-8.30577 -32.88153,-24.49843 -15.21443,-31.99688 -28.18012,-54.33698 -5.57419,-19.15621 -14.29675,-15.97672 -25.34595,-38.87222 -9.56767,-32.52453 -51.34312,-76.61827 -118.82544,-84.25087 -49.7929,-5.13549 -262.86021,-25.9219 -316.27183,184.14404 -4.628231,36.68093 18.90172,82.76511 18.99787,108.62756 -11.68811,74.06664 30.28615,74.54062 51.56838,102.48421 26.46356,15.16746 16.05079,33.17156 83.0577,45.2203 17.8417,3.38387 17.31174,8.6049 53.52608,10.1515 24.72637,-7.0523 68.84101,40.82883 73.82906,-22.14872 14.60734,-0.56637 31.0738,-8.21547 16.31825,-55.49115 11.7117,-16.10856 29.94813,3.54811 46.6437,2.19846 7.85407,26.75404 19.84324,21.83651 29.46613,23.75099 11.88416,-0.10863 20.32043,-19.03205 31.84897,-25.48507 10.96447,-0.96328 16.63499,-2.39976 27.74101,-4.47503 6.2838,-1.17419 15.14391,1.34557 21.30398,-0.22042 15.70015,-3.99124 30.16447,-7.1315 42.4682,-13.14338 6.8294,-2.68949 15.88928,-5.4448 21.84225,-8.1591 2.59798,-6.37145 36.06135,-17.57415 36.82041,-29.30169 z"
       id="path2861"
       inkscape:connector-curvature="0"
       sodipodi:nodetypes="ccccccccccccccccccccccc" />
    <path
       style="fill:#000000"
       d="m 556.63617,489.53366 c -13.77414,-2.62025 -31.32302,87.44343 -31.32302,87.44343 8.47264,32.1353 40.57633,41.0535 48.28965,7.17819 3.50503,-1.75251 8.85784,-30.93938 -3.82655,-50.83341 -2.56868,-21.77697 -6.69656,-42.56246 -13.14008,-43.78821 z"
       id="path2863"
       inkscape:connector-curvature="0"
       sodipodi:nodetypes="scccs" />
    <path
       d="m 564.91881,763.96554 c -1.16771,-5.65932 -2.50753,-10.93139 -1.06925,-22.45419 7.37439,-1.8432 14.59168,-2.91723 25.20112,-0.87837 6.49357,-4.86249 15.19641,-6.04287 23.62783,-7.6756 5.29526,-7.95988 12.27417,-2.16079 20.67211,-8.55398 3.20666,-1.14996 5.48915,-4.45125 10.8401,-6.16346 3.59672,-2.35886 1.66459,-3.66235 8.27661,-6.62426 3.10594,-4.00558 6.86832,-7.00893 9.31005,-7.69351 l 3.38379,-5.32091 c 6.27539,28.06214 3.12171,30.73831 0.97969,36.13819 -36.96654,34.9037 -70.97396,46.72629 -101.22205,29.22609 z"
       id="path2898"
       inkscape:connector-curvature="0"
       sodipodi:nodetypes="ccccccccccc" />
    <path
       d="m 589.73599,740.45142 3.27631,24.19429"
       id="path2900"
       inkscape:connector-curvature="0"
       sodipodi:nodetypes="cc" />
    <path
       d="m 445.87598,715.13659 c 4.91809,-11.72136 10.14348,-23.17933 34.57232,-18.17719 -4.35688,0.80642 19.9887,-3.31719 31.00088,-1.77972 2.57006,0.35882 4.41388,1.02598 4.9971,2.13613 1.11196,2.11659 27.80042,-4.98982 30.65175,-4.98982 2.85132,0 16.75153,-4.6334 16.75153,-4.6334"
       id="path2894"
       inkscape:connector-curvature="0"
       sodipodi:nodetypes="ccsssc" />
    <path
       d="m 480.4483,699.09789 c 7.55342,9.02356 15.85322,12.8225 25.30551,8.55398"
       id="path2896"
       inkscape:connector-curvature="0"
       sodipodi:nodetypes="cc" />
    <path
       d="m 666.49066,735.43792 -25.67388,9.90041 c -6.52563,12.78751 -13.05126,9.55187 -19.57689,13.05125 -7.95228,2.44073 -15.45531,5.10608 -26.75508,5.87307 -12.48897,2.86473 -25.44347,4.79843 -43.06915,-2.61026 -12.16276,-2.44726 -11.74681,-43.24178 -20.88201,-58.0781 -1.48951,-3.37013 -3.24056,-5.79121 -5.11537,-7.41967 -2.76927,-1.3427 -11.61389,-1.25278 -14.17691,0.16076 -3.61212,2.97467 -6.15767,7.91178 -6.15767,13.13198 -0.60349,17.55943 -44.98607,56.99453 -58.73067,5.87307 -14.96622,-2.18531 -35.82399,-14.97542 -42.3733,-0.13885 3.46443,4.43678 46.839,49.63228 46.839,50.65143 31.53133,32.00845 34.7238,65.837 71.98334,53.52607 16.12239,-0.44453 26.99248,0.63405 38.24434,0.3504 19.73729,-1.87869 37.77584,-5.54884 38.81475,-5.88757 44.09788,-10.10084 101.26376,-9.26905 79.82768,-64.13901 -6.41029,-7.76467 -8.97181,-9.75619 -13.19818,-14.24498 z"
       id="path2865"
       inkscape:connector-curvature="0"
       sodipodi:nodetypes="ccccccccccccccccc" />
    <path
       d="m 613.67826,733.39474 4.03238,25.2024"
       id="path2902"
       inkscape:connector-curvature="0"
       sodipodi:nodetypes="cc" />
    <path
       d="m 633.0841,724.32188 5.79655,21.67406"
       id="path2904"
       inkscape:connector-curvature="0"
       sodipodi:nodetypes="cc" />
    <path
       d="m 643.66911,718.02128 5.54452,22.17812"
       id="path2906"
       inkscape:connector-curvature="0"
       sodipodi:nodetypes="cc" />
    <path
       style="fill:#000000"
       d="m 626.02743,607.63481 c 5.25622,9.18662 2.6123,8.86322 0,10.83703 -9.15056,-0.33233 -20.19384,1.65824 -15.12144,-16.12954 l 12.55796,-66.35393 c 3.34858,-3.04684 9.53466,-4.4643 8.86408,8.69112 z"
       id="path2912"
       inkscape:connector-curvature="0"
       sodipodi:nodetypes="cccccc" />
    <path
       d="m 511.81288,567.93693 c -12.63807,14.01902 -15.39852,28.03803 -7.12832,42.05705 10.16795,16.42779 -1.88888,16.98074 -3.56415,24.94909 -35.21756,22.36099 -55.13027,37.06955 -82.68843,55.60084 -16.60236,7.66963 -33.55151,11.87141 -52.03669,0.71284 -5.69514,-5.28001 -13.10808,1.46459 -20.67211,9.2668"
       id="path2914"
       inkscape:connector-curvature="0"
       sodipodi:nodetypes="cccccc" />
    <path
       d="m 252.34228,539.42368 c -19.36017,59.94928 0.81801,88.78025 24.9491,111.91451 29.46369,9.74203 22.82565,58.62119 67.00614,42.05705"
       id="path2916"
       inkscape:connector-curvature="0"
       sodipodi:nodetypes="ccc" />
    <path
       d="m 469.75583,517.32591 c 24.7822,21.93274 -6.99616,44.70499 24.23626,83.40126"
       id="path2918"
       inkscape:connector-curvature="0"
       sodipodi:nodetypes="cc" />
    <path
       d="m 435.53993,510.91043 c -19.05545,13.0338 0.0306,47.8297 -18.53362,57.73933 -8.91493,15.80354 24.51204,26.26486 -9.97963,50.61102 -30.83033,11.21234 -25.18671,13.30619 -37.78006,19.95928"
       id="path2920"
       inkscape:connector-curvature="0"
       sodipodi:nodetypes="cccc" />
    <path
       d="m 281.56837,371.90832 c 10.69247,18.24212 27.08758,13.54696 32.0774,25.66193 9.53395,16.53384 26.32246,19.67733 18.53362,43.48271 6.8907,31.83556 25.89954,8.76101 31.36458,20.67211 2.66069,24.8012 69.21327,30.43213 54.17517,79.8371"
       id="path2923"
       inkscape:connector-curvature="0"
       sodipodi:nodetypes="ccccc" />
    <path
       sodipodi:nodetypes="cc"
       inkscape:connector-curvature="0"
       id="path2937"
       d="m 654.25412,709.70449 6.04856,26.96658" />
  </g>
</svg>
