<?xml version="1.0" encoding="utf-8"?>
<!-- Generator: Adobe Illustrator 14.0.0, SVG Export Plug-In . SVG Version: 6.00 Build 43363)  -->
<!DOCTYPE svg PUBLIC "-//W3C//DTD SVG 1.1//EN" "http://www.w3.org/Graphics/SVG/1.1/DTD/svg11.dtd">
<svg version="1.1" id="Laag_1" xmlns="http://www.w3.org/2000/svg" xmlns:xlink="http://www.w3.org/1999/xlink" x="0px" y="0px"
	 width="800px" height="800px" viewBox="0 0 800 800" enable-background="new 0 0 800 800" xml:space="preserve">
<g>
	<path d="M230.53,346.718c0,0-24.208,66.314,53.662,82.09c0,0,33.683,13.67,44.203,54.715H401h72.604
		c10.511-41.045,44.203-54.715,44.203-54.715c77.879-15.775,53.662-82.09,53.662-82.09c85.23-39.992,27.357-183.096,27.357-183.096
		C524.126,55.228,401,69.986,401,69.986s-123.117-14.758-197.828,93.636C203.172,163.622,145.299,306.726,230.53,346.718z
		 M441.001,276.424c0,0,106.271-26.519,103.111,72.399c0,0-32.122,31.034-66.297,24.217c-36.833-7.353-57.873-47.897-57.873-47.897
		C415.73,304.62,441.001,276.424,441.001,276.424z M401,348.823c0,0,27.366,35.781,29.472,62.085c0,0-12.635,14.74-29.472,12.635
		c-16.838,2.105-29.463-12.635-29.463-12.635C373.642,384.604,401,348.823,401,348.823z M361.008,276.424
		c0,0,25.26,28.196,21.049,48.719c0,0-21.04,40.545-57.873,47.897c-34.184,6.817-66.297-24.217-66.297-24.217
		C254.728,249.905,361.008,276.424,361.008,276.424z"/>
	<path d="M532.549,597.163c122.063,131.522,265.149-53.661,265.149-53.661c-9.458-5.266-94.688-79.967-94.688-79.967l24.198-89.514
		l-54.714,12.26L650.4,338.313C517.808,550.871,401,578.229,401,578.229s-116.809-27.357-249.393-239.916l-22.093,47.969
		l-54.723-12.26l24.208,89.514c0,0-85.231,74.701-94.707,79.967c0,0,143.104,185.184,265.168,53.661
		c0,0-105.227-43.151-106.28-65.244c0,0,23.155-39.117,39.466-40.598c0,0,88.906,80.572,128.898,99.524
		c0,0-142.051,87.337-188.351,157.845h114.622c0,0,82.152-102.077,143.185-116.8c61.022,14.723,143.184,116.8,143.184,116.8h114.623
		c-46.31-70.508-188.36-157.845-188.36-157.845c40.009-18.952,128.916-99.524,128.916-99.524
		c16.312,1.48,39.457,40.598,39.457,40.598C637.767,554.012,532.549,597.163,532.549,597.163z"/>
</g>
</svg>
