<svg xmlns="http://www.w3.org/2000/svg" data-name="Layer 1" viewBox="0 0 64 64" x="0px" y="0px"><path d="M17.313,34.824a1.985,1.985,0,0,0,1.877.983c.514-.039,1.123-.092,1.8-.15,4.027-.35,14.725-1.276,16.174.9a1,1,0,1,0,1.664-1.11c-1.944-2.915-9.964-2.478-18.011-1.781-.672.058-1.275.11-1.78.149l.839-1.258a1,1,0,1,0-1.664-1.11L17.377,32.7A1.988,1.988,0,0,0,17.313,34.824Z"/><path d="M13,34c2.57,0,5-2.916,5-6s-2.43-6-5-6c-2.73,0-3.952,3.014-3.952,6S10.27,34,13,34Zm0-10c1.31,0,3,1.94,3,4s-1.69,4-3,4c-1.268,0-1.952-2.061-1.952-4S11.732,24,13,24Z"/><path d="M40,40a1,1,0,0,0,1-1V38a1,1,0,0,0-2,0v1A1,1,0,0,0,40,40Z"/><path d="M7.8,41.728a.593.593,0,0,1-.5-.1L6.6,41.168a1,1,0,0,0-1.525.589l-.22.857c-.591,2.28-1.238,4.837-.54,7.36v.006a1.009,1.009,0,0,0,.112.352c.041.125.067.251.116.376a13.936,13.936,0,0,0,1.549,2.74c.87,1.293,1.621,2.41,1.59,3.89-.027,1.293.021,2.516.886,3.27a2.721,2.721,0,0,0,1.836.594,6.341,6.341,0,0,0,.994-.089c2.583-.411,15.6-2.549,18.2-4.281,2.142-1.428,4.586-7.289,6.207-11.775,1.127-.022,2.242-.094,3.33-.216A3.476,3.476,0,0,0,42.5,47c1,0,2.462-.478,3.7-2.753a4.2,4.2,0,0,1,1.935-1.833C55.707,38.932,60.048,32.4,60.048,24.5a19.6,19.6,0,0,0-.231-2.951c0-.017,0-.033-.007-.05C58.108,10.507,47.208,2,34.048,2c-19.514,0-29,6.869-29,21a13.51,13.51,0,0,0,1.108,3.927c.275.733.534,1.425.624,1.809a.994.994,0,0,1-.205.869L4.28,32.36a1,1,0,0,0-.127,1.087L8,41.147a.423.423,0,0,1,.023.324A.371.371,0,0,1,7.8,41.728Zm10.092,7.877-.374-2.493.567-.04a3,3,0,0,0,2.358-1.449l.608-1.012v1.938a3.019,3.019,0,0,1-2.561,2.968Zm-2.374-2.35.051.343L6.1,48.756a7.054,7.054,0,0,1-.079-.823ZM7.028,51.214c-.1-.172-.2-.346-.291-.522l9.126-1.115.048.321Zm28.553-11.75c-.427,1.374-.892,2.778-1.379,4.154a1.018,1.018,0,0,0-.08.227c-1.931,5.419-4.179,10.356-5.629,11.323-1.736,1.157-11.361,3.008-17.407,3.97-.952.151-1.179-.017-1.2-.037-.233-.2-.209-1.346-.2-1.721a7.528,7.528,0,0,0-1.45-4.323L18.78,51.5a5.03,5.03,0,0,0,4.268-4.946V40a.168.168,0,0,1,.316-.052C24.036,41.965,25.745,44,28.048,44c3.813,0,5.447-3.542,5.972-5.065a.752.752,0,0,1,1-.558A.871.871,0,0,1,35.581,39.464ZM24.638,38.406c.256-.065.506-.133.764-.2a6.971,6.971,0,0,1,5.939,1.225l.208.153A4.094,4.094,0,0,1,28.048,42c-1.5,0-2.478-1.755-2.787-2.684A2.137,2.137,0,0,0,24.638,38.406Zm25.079.892,1.207-2.916a1,1,0,0,0,.054-.59l-.872-4.112,1.53-2.618L54.073,29a1,1,0,0,0,.945-.757l.9-3.6,2.089-1.285c.025.38.04.762.04,1.147A17.006,17.006,0,0,1,49.717,39.3Zm-39.925.954L6.235,33.138l1.876-2.252a3.017,3.017,0,0,0,.617-2.6,19.4,19.4,0,0,0-.7-2.059A14.843,14.843,0,0,1,7.048,23c0-10.731,5.887-16.712,18.363-18.454l-.924.626a1,1,0,0,0-.409,1.071l.829,3.316-2.414,1.609a1,1,0,0,0-.34,1.279l1.676,3.35L21.3,18.287a1,1,0,0,0-.3.722l.041,4.295-2.3.745a1,1,0,1,0,.616,1.9l2.659-.861,4.391,3.677a1,1,0,0,0,1.284-1.534l-4.649-3.892L23,19.415l2.746-2.7a1,1,0,0,0,.192-1.16l-1.605-3.211,2.266-1.51a1,1,0,0,0,.415-1.075l-.83-3.321L28.98,4.542A.973.973,0,0,0,29.3,4.15Q31.557,4,34.048,4c11.909,0,21.815,7.449,23.68,17.177l-3.2,1.971a1,1,0,0,0-.446.609l-.816,3.263-2.234.056a1,1,0,0,0-.838.5l-1.532,2.622-2.017-1.014-1.886-1.886A1,1,0,0,0,44.048,27h-2.7L38.6,25.168a1,1,0,0,0-1.11,1.664l3,2a1.006,1.006,0,0,0,.555.168h2.586l1.707,1.707a1,1,0,0,0,.258.187l2.57,1.292.789,3.718-2.03,4.9a6.2,6.2,0,0,0-2.481,2.482C44.1,43.928,43.382,45,42.5,45a1.382,1.382,0,0,1-1.479-.99l.852-1.522a1,1,0,0,0-1.746-.976l-.714,1.277c-.945.121-1.911.206-2.894.246.46-1.349.8-2.422.972-2.979a2.88,2.88,0,0,0-2.864-3.722,2.767,2.767,0,0,0-2.236,1.4,8.945,8.945,0,0,0-7.469-1.465c-1.591.394-3.153.819-4.582,1.209-1.888.514-3.518.958-4.655,1.176a1.987,1.987,0,0,1-1.972-.765L11.848,35.4a1,1,0,0,0-1.6,1.2l1.865,2.488a3.978,3.978,0,0,0,3.949,1.529c1.212-.232,2.876-.686,4.8-1.211l.3-.081a2.16,2.16,0,0,0-.118.675v.723l-2.322,3.871a1,1,0,0,1-.787.483L6.16,45.918c.128-.786.319-1.576.52-2.361a2.492,2.492,0,0,0,1.772.06,2.367,2.367,0,0,0,1.475-1.525A2.415,2.415,0,0,0,9.792,40.252Z"/><path d="M13.71,55.29a.955.955,0,0,0-.16-.12.556.556,0,0,0-.17-.09.636.636,0,0,0-.18-.06,1.018,1.018,0,0,0-.91.27,1.155,1.155,0,0,0-.21.33.942.942,0,0,0,0,.76,1.155,1.155,0,0,0,.21.33A1.052,1.052,0,0,0,13,57a1.355,1.355,0,0,0,.2-.02.636.636,0,0,0,.18-.06.556.556,0,0,0,.17-.09c.06-.04.11-.08.16-.12a1.155,1.155,0,0,0,.21-.33.943.943,0,0,0,0-.76A1.155,1.155,0,0,0,13.71,55.29Z"/></svg>
