<svg id="svg" xmlns="http://www.w3.org/2000/svg" xmlns:xlink="http://www.w3.org/1999/xlink" width="400" height="266.6666666666667" viewBox="0, 0, 400,266.6666666666667"><g id="svgg"><path id="path0" d="M199.333 43.305 C 197.658 43.524,196.853 43.599,193.300 43.867 C 186.794 44.357,183.847 45.084,179.733 47.212 C 175.461 49.423,173.260 51.326,168.310 57.091 C 162.498 63.860,160.071 72.782,161.103 83.581 C 161.759 90.455,163.063 94.660,165.270 97.023 C 165.862 97.657,165.822 97.667,165.988 96.850 C 166.414 94.760,166.507 91.586,166.270 87.233 C 165.826 79.076,166.057 77.812,168.967 72.467 C 170.079 70.425,170.502 69.562,170.798 68.733 C 172.526 63.893,174.316 61.640,177.131 60.761 C 177.741 60.571,177.718 60.543,177.498 61.212 C 177.140 62.297,176.779 63.121,175.966 64.700 C 174.908 66.759,174.946 66.655,174.003 70.123 C 173.081 73.511,173.005 73.700,171.764 75.646 C 169.443 79.284,169.234 80.897,169.425 93.667 C 169.496 98.388,169.448 98.838,168.763 99.909 C 168.126 100.907,167.499 101.306,165.633 101.900 C 163.459 102.593,162.837 103.096,162.565 104.381 C 162.384 105.234,162.480 107.230,162.726 107.739 C 164.183 110.747,166.398 112.255,172.900 114.663 C 179.064 116.946,179.691 117.378,181.800 120.800 C 184.248 124.772,187.066 126.367,193.100 127.196 C 197.072 127.742,204.628 127.802,206.533 127.302 C 206.735 127.249,207.625 127.070,208.512 126.904 C 210.699 126.493,211.110 126.352,213.033 125.353 C 214.284 124.704,215.156 123.817,217.216 121.100 C 219.619 117.930,220.416 117.372,224.700 115.855 C 228.836 114.391,230.780 113.428,232.500 111.990 C 233.375 111.259,233.846 110.736,234.855 109.375 C 235.387 108.658,235.755 107.397,235.762 106.267 C 235.773 104.696,235.095 104.058,232.433 103.131 C 228.828 101.877,228.091 100.768,228.224 96.800 C 228.308 94.270,228.734 90.984,229.476 87.143 L 229.751 85.719 230.809 86.776 L 231.867 87.832 231.867 90.392 C 231.867 92.765,232.198 97.552,232.374 97.729 C 232.520 97.877,234.065 97.143,234.676 96.636 C 236.417 95.191,237.048 93.184,237.497 87.667 C 237.588 86.548,237.709 85.078,237.765 84.400 C 238.551 74.865,238.222 69.895,236.481 65.033 C 233.266 56.053,224.571 47.937,214.667 44.672 C 211.984 43.787,210.772 43.600,207.731 43.600 L 205.280 43.600 203.442 43.333 C 201.282 43.020,201.493 43.022,199.333 43.305 M186.167 81.736 C 194.029 82.634,197.377 89.965,192.981 96.660 C 189.648 101.736,182.974 105.242,178.702 104.161 C 175.715 103.406,174.293 100.885,174.305 96.367 C 174.327 88.589,176.403 84.569,181.502 82.431 C 183.285 81.683,184.334 81.527,186.167 81.736 M215.501 81.837 C 220.474 82.597,223.842 87.078,224.330 93.583 C 224.367 94.069,224.506 95.119,224.640 95.917 C 224.865 97.253,224.878 97.403,224.807 97.833 C 224.277 101.056,221.153 103.890,217.195 104.738 C 212.363 105.772,204.631 98.079,203.864 91.473 C 203.485 88.208,206.059 84.707,210.158 82.911 C 212.641 81.824,213.840 81.583,215.501 81.837 M200.107 98.470 C 200.969 98.887,201.496 99.855,201.702 101.400 C 201.753 101.785,201.993 102.820,202.236 103.700 C 202.479 104.580,202.855 105.948,203.072 106.739 C 203.973 110.021,204.400 112.478,204.400 114.372 L 204.400 115.130 204.217 115.095 C 204.116 115.075,202.743 114.823,201.167 114.534 L 198.300 114.009 195.754 114.853 C 194.353 115.317,193.191 115.680,193.170 115.659 C 192.969 115.458,192.965 112.622,193.164 111.267 C 193.911 106.183,196.413 99.994,198.273 98.629 C 198.795 98.246,199.513 98.183,200.107 98.470 M173.589 122.702 C 173.360 122.826,173.194 123.262,173.181 123.772 C 173.172 124.116,173.685 135.005,173.869 138.381 C 174.059 141.865,174.667 143.317,177.067 146.006 C 179.255 148.458,179.388 148.629,180.997 151.067 C 184.059 155.704,185.607 156.858,189.938 157.732 C 192.893 158.328,197.079 158.501,200.545 158.169 C 201.301 158.096,202.549 158.056,204.445 158.042 C 208.036 158.015,208.623 157.903,210.767 156.834 C 214.302 155.070,219.931 148.303,222.065 143.251 C 222.651 141.864,222.635 141.965,222.932 137.797 C 223.230 133.607,223.239 133.544,223.966 130.800 C 224.552 128.587,224.630 128.144,224.733 126.400 C 224.850 124.433,224.829 123.778,224.650 123.823 C 224.567 123.844,223.904 123.984,223.177 124.135 C 220.083 124.775,218.867 125.578,217.746 127.722 C 216.905 129.330,216.630 130.362,215.801 135.033 C 214.494 142.402,212.524 145.318,207.806 146.868 C 205.361 147.672,203.404 147.910,199.800 147.844 C 189.974 147.662,184.975 145.464,182.362 140.176 C 181.441 138.312,181.285 137.454,181.133 133.433 C 180.966 129.038,179.638 126.114,176.977 124.287 C 176.568 124.007,175.935 123.572,175.570 123.322 C 174.597 122.654,174.014 122.471,173.589 122.702 M188.142 128.533 C 186.485 128.925,186.265 131.520,187.754 133.111 C 188.753 134.179,189.673 134.080,190.238 132.844 C 190.537 132.187,190.364 129.719,189.942 128.650 L 189.870 128.467 189.118 128.473 C 188.705 128.477,188.265 128.504,188.142 128.533 M207.370 128.617 C 206.823 131.159,207.309 134.200,208.263 134.200 C 208.965 134.200,209.185 133.881,209.497 132.404 C 210.112 129.489,209.911 128.849,208.294 128.567 C 207.505 128.430,207.409 128.435,207.370 128.617 M197.552 129.072 C 196.473 129.396,196.023 132.691,196.883 133.974 C 197.180 134.419,197.363 134.493,198.167 134.497 C 199.119 134.501,199.528 134.257,199.895 133.467 C 200.222 132.762,200.065 129.754,199.669 129.133 C 199.592 129.013,197.910 128.964,197.552 129.072 M192.931 129.217 C 192.444 129.462,192.277 129.992,192.138 131.730 C 192.007 133.381,192.033 133.923,192.250 134.013 C 192.690 134.196,194.240 134.149,195.080 133.928 L 195.326 133.863 195.291 132.448 C 195.265 131.445,195.225 130.936,195.152 130.700 C 194.746 129.391,193.816 128.770,192.931 129.217 M202.139 129.622 C 201.678 132.770,201.555 134.408,201.774 134.495 C 202.218 134.671,203.769 134.593,204.483 134.360 L 204.800 134.256 204.800 132.601 C 204.800 129.456,204.782 129.429,202.426 129.107 L 202.219 129.078 202.139 129.622 M187.232 140.680 C 187.249 140.838,187.278 141.198,187.297 141.481 C 187.442 143.650,188.108 144.370,189.854 144.245 C 190.593 144.192,190.629 144.127,190.402 143.242 C 189.933 141.406,189.259 140.766,187.451 140.439 L 187.202 140.394 187.232 140.680 M192.205 140.772 C 191.895 140.825,191.633 140.878,191.621 140.890 C 191.610 140.901,191.703 141.433,191.829 142.072 C 191.954 142.711,192.075 143.345,192.098 143.481 C 192.215 144.192,192.958 145.267,193.332 145.267 C 194.755 145.267,195.583 141.470,194.299 140.836 C 193.956 140.666,192.986 140.637,192.205 140.772 M205.001 141.078 C 204.063 141.563,204.029 143.321,204.921 145.133 C 205.279 145.861,205.402 145.860,206.172 145.121 C 207.441 143.903,207.799 143.006,207.376 142.100 C 206.961 141.210,205.752 140.690,205.001 141.078 M197.443 141.712 C 195.943 143.204,196.421 145.667,198.233 145.785 C 199.135 145.843,199.496 145.603,199.970 144.633 C 200.920 142.689,200.364 141.467,198.505 141.412 L 197.767 141.390 197.443 141.712 M210.100 168.762 C 210.075 169.168,210.082 170.010,210.115 170.633 C 210.148 171.257,210.164 171.789,210.151 171.817 C 210.137 171.844,205.650 171.866,200.179 171.866 C 169.490 171.863,147.153 172.028,146.341 172.263 C 144.327 172.846,142.955 174.255,142.622 176.083 L 142.516 176.667 142.275 176.668 C 140.906 176.675,139.835 177.102,138.884 178.022 C 137.847 179.025,137.488 180.141,137.552 182.163 L 137.567 182.626 136.200 182.811 C 133.945 183.116,132.321 183.333,130.267 183.605 C 129.992 183.641,129.557 183.699,129.300 183.733 C 128.484 183.843,127.045 184.032,125.500 184.233 C 125.097 184.286,124.422 184.374,124.000 184.430 C 122.182 184.669,118.940 185.071,117.818 185.197 C 115.156 185.496,113.619 185.313,112.015 184.508 C 110.041 183.517,108.916 183.378,105.733 183.736 C 105.385 183.775,104.860 183.834,104.567 183.866 C 103.860 183.945,100.732 184.299,99.267 184.467 C 98.625 184.540,97.560 184.661,96.900 184.736 C 96.240 184.810,95.190 184.930,94.567 185.003 C 93.943 185.076,93.163 185.164,92.833 185.200 C 92.503 185.236,91.723 185.324,91.100 185.397 C 90.477 185.469,89.682 185.561,89.333 185.600 C 88.985 185.640,87.920 185.761,86.967 185.870 C 84.835 186.113,81.817 186.454,81.100 186.533 C 80.539 186.595,76.378 187.063,74.900 187.230 C 73.284 187.413,70.304 187.731,69.348 187.823 C 67.364 188.013,67.041 188.486,67.633 190.332 C 69.672 196.694,70.929 204.727,70.932 211.408 C 70.934 214.051,70.915 214.021,72.567 214.020 C 74.753 214.019,76.809 213.447,87.733 209.802 C 95.672 207.154,97.161 206.673,101.167 205.466 C 104.385 204.496,105.714 204.087,107.900 203.391 C 110.126 202.682,114.134 201.378,115.667 200.863 C 119.592 199.546,122.089 198.697,123.717 198.129 C 124.129 197.985,124.819 197.744,125.250 197.595 C 126.021 197.328,126.548 197.142,127.667 196.744 C 131.842 195.258,134.741 194.214,136.299 193.636 C 137.879 193.049,137.744 193.061,138.300 193.453 C 140.574 195.055,141.724 197.626,141.731 201.120 L 141.733 202.207 141.340 203.120 C 137.700 211.574,134.940 217.548,133.780 219.485 C 133.120 220.586,133.044 221.092,133.486 221.426 C 133.698 221.585,133.856 221.640,134.633 221.822 C 134.853 221.874,135.318 221.995,135.667 222.092 C 136.015 222.189,137.845 222.688,139.733 223.200 C 141.622 223.712,143.497 224.221,143.900 224.332 C 144.303 224.443,144.961 224.623,145.362 224.733 C 147.447 225.306,147.510 225.186,148.204 219.300 C 148.665 215.386,149.080 213.717,149.904 212.467 C 150.528 211.519,154.772 206.295,156.687 204.117 L 157.141 203.600 169.637 203.600 L 182.133 203.600 182.133 198.607 C 182.133 193.073,182.094 193.533,182.572 193.533 C 182.697 193.533,182.800 193.511,182.800 193.483 C 182.800 193.456,183.063 193.433,183.383 193.433 C 183.704 193.433,184.074 193.413,184.206 193.389 L 184.446 193.345 184.491 194.989 C 184.799 206.233,189.068 218.015,196.899 229.235 C 201.753 236.191,208.182 242.930,212.855 245.962 C 215.051 247.387,215.656 247.376,216.527 245.894 C 216.761 245.494,217.919 243.577,219.099 241.633 C 223.622 234.183,224.600 232.444,224.600 231.853 C 224.600 231.279,224.169 230.804,222.796 229.866 C 213.189 223.299,206.861 213.948,204.144 202.300 C 203.417 199.181,202.855 194.640,202.990 192.963 L 203.013 192.676 203.423 192.634 C 203.649 192.611,206.158 192.586,209.000 192.579 L 214.167 192.567 214.600 192.776 C 214.838 192.890,215.708 193.408,216.533 193.927 C 219.255 195.637,219.796 195.843,221.367 195.770 C 224.122 195.642,225.815 195.197,228.733 193.831 C 231.033 192.755,232.084 192.379,233.515 192.121 L 234.367 191.967 250.117 191.967 L 265.867 191.967 265.867 189.506 L 265.867 187.045 299.230 187.091 L 332.593 187.137 332.596 185.119 C 332.598 184.008,332.619 182.692,332.643 182.194 L 332.686 181.287 332.526 181.244 C 332.438 181.221,332.274 181.201,332.160 181.201 C 331.633 181.199,330.802 180.781,330.581 180.407 C 330.282 179.900,330.204 178.675,330.144 173.553 C 330.116 171.235,330.080 169.325,330.063 169.308 C 330.046 169.290,329.399 169.294,328.625 169.315 L 327.217 169.353 325.700 172.593 L 324.183 175.833 322.524 178.373 L 320.864 180.912 318.715 180.958 C 310.722 181.130,303.075 181.145,301.300 180.992 C 297.352 180.652,293.410 179.200,290.546 177.031 C 289.340 176.118,289.451 176.384,289.295 174.024 C 289.271 173.653,289.232 173.319,289.209 173.283 C 289.144 173.182,286.077 173.138,276.500 173.100 C 271.697 173.081,266.474 173.047,264.895 173.025 L 262.023 172.985 262.052 172.476 C 262.078 172.037,262.063 171.944,261.947 171.800 L 261.812 171.633 245.269 171.615 L 228.726 171.596 228.487 171.065 L 228.248 170.533 225.440 170.536 C 221.211 170.539,221.287 170.525,219.683 171.590 C 218.085 172.650,218.019 172.667,215.463 172.667 L 213.616 172.667 213.589 170.403 C 213.574 169.158,213.548 168.126,213.531 168.111 C 213.514 168.095,212.745 168.069,211.822 168.053 L 210.145 168.025 210.100 168.762 M173.078 193.517 L 175.790 193.543 175.836 193.821 C 175.861 193.975,175.893 194.118,175.905 194.140 C 175.918 194.162,175.942 194.627,175.958 195.173 C 175.974 195.720,176.019 196.407,176.059 196.700 C 176.317 198.619,176.501 199.863,176.694 201.000 C 176.816 201.715,176.905 202.318,176.893 202.341 C 176.872 202.378,163.789 202.500,159.833 202.500 L 158.167 202.500 158.143 202.333 C 158.129 202.242,158.140 200.209,158.167 197.816 L 158.216 193.465 164.291 193.478 C 167.633 193.485,171.587 193.503,173.078 193.517 " stroke="none" fill="#000000" fill-rule="evenodd"></path></g></svg>