<?xml version="1.0" encoding="UTF-8" standalone="no"?>
<svg
   xmlns:dc="http://purl.org/dc/elements/1.1/"
   xmlns:cc="http://creativecommons.org/ns#"
   xmlns:rdf="http://www.w3.org/1999/02/22-rdf-syntax-ns#"
   xmlns:svg="http://www.w3.org/2000/svg"
   xmlns="http://www.w3.org/2000/svg"
   xmlns:sodipodi="http://sodipodi.sourceforge.net/DTD/sodipodi-0.dtd"
   xmlns:inkscape="http://www.inkscape.org/namespaces/inkscape"
   viewBox="0 0 247.87125 286.23001"
   height="286.23001"
   width="247.87125"
   xml:space="preserve"
   version="1.1"
   id="svg3519"
   sodipodi:docname="Zeichen_101-51_-_Schnee-_oder_Eisglätte,_StVO_2017.svg"
   inkscape:version="1.0.2-2 (e86c870879, 2021-01-15)"><sodipodi:namedview
     pagecolor="#ffffff"
     bordercolor="#666666"
     borderopacity="1"
     objecttolerance="10"
     gridtolerance="10"
     guidetolerance="10"
     inkscape:pageopacity="0"
     inkscape:pageshadow="2"
     inkscape:window-width="1920"
     inkscape:window-height="1001"
     id="namedview11"
     showgrid="false"
     inkscape:zoom="1.0001474"
     inkscape:cx="123.9355"
     inkscape:cy="32.597381"
     inkscape:window-x="-9"
     inkscape:window-y="-9"
     inkscape:window-maximized="1"
     inkscape:current-layer="g3529" /><metadata
     id="metadata3525"><rdf:RDF><cc:Work
         rdf:about=""><dc:format>image/svg+xml</dc:format><dc:type
           rdf:resource="http://purl.org/dc/dcmitype/StillImage" /><dc:title /></cc:Work></rdf:RDF></metadata><defs
     id="defs3523" /><g
     transform="matrix(1.25,0,0,-1.25,-299.64375,404.40875)"
     id="g3527"><g
       id="g3529"><path
         id="path3537"
         style="fill:#000000;fill-opacity:1;fill-rule:nonzero;stroke:none"
         d="m 338.855,323.527 13.215,-7.641 v -13.367 l 11.59,6.676 13.199,-7.609 v -15.25 L 352.07,272.031 v -40.113 l 34.739,20.043 v 28.633 l 13.199,7.625 13.215,-7.625 v -13.383 l 11.574,6.707 13.215,-7.641 v -15.25 l -11.574,-6.676 11.574,-6.691 v -15.25 l -13.215,-7.641 -24.789,14.332 -34.719,-20.074 34.719,-20.058 24.789,14.316 13.215,-7.625 v -15.25 l -11.574,-6.676 11.574,-6.707 v -15.234 l -13.215,-7.625 -11.574,6.676 v -13.368 l -13.215,-7.609 -13.199,7.609 v 28.618 l -34.739,20.058 v -40.101 l 24.789,-14.317 v -15.25 l -13.199,-7.64 -11.59,6.675 v -13.363 l -13.215,-7.613 -13.207,7.613 v 13.363 l -11.574,-6.675 -13.211,7.64 v 15.25 l 24.785,14.317 v 40.101 l -34.722,-20.058 v -28.618 l -13.207,-7.609 -13.223,7.609 v 13.368 l -11.574,-6.676 -13.207,7.625 v 15.234 l 11.57,6.707 -11.57,6.676 v 15.25 l 13.207,7.625 24.797,-14.316 34.719,20.058 -34.719,20.074 -24.797,-14.332 -13.207,7.641 v 15.25 l 11.57,6.691 -11.57,6.676 v 15.25 l 13.207,7.641 11.574,-6.707 v 13.383 l 13.223,7.625 13.207,-7.625 v -28.633 l 34.722,-20.043 v 40.113 l -24.785,14.305 v 15.25 l 13.211,7.609 11.574,-6.676 v 13.367" /></g></g></svg>
